<?xml version="1.0" standalone="no"?>
<!DOCTYPE svg PUBLIC "-//W3C//DTD SVG 20010904//EN"
 "http://www.w3.org/TR/2001/REC-SVG-20010904/DTD/svg10.dtd">
<svg version="1.0" xmlns="http://www.w3.org/2000/svg"
 width="28.000000pt" height="35.000000pt" viewBox="0 0 137.000000 129.000000"
 preserveAspectRatio="xMidYMid meet">
<metadata>
Created by potrace 1.10, written by Peter Selinger 2001-2011
</metadata>
<g transform="translate(0.000000,129.000000) scale(0.050000,-0.050000)"
fill="#000000" stroke="none">
<path d="M1660 2191 c0 -46 -7 -49 -125 -55 l-125 -6 -5 -429 -6 -428 65 -67
c113 -117 116 -109 116 334 0 386 1 400 40 400 38 0 39 -17 45 -505 l5 -505
80 0 80 0 5 505 c5 487 7 505 45 505 38 0 40 -18 45 -505 l5 -505 80 0 80 0 5
505 c6 488 7 505 45 505 39 0 40 -15 40 -547 l0 -546 78 -63 c42 -34 83 -57
90 -50 6 7 12 326 12 709 l0 697 -130 0 c-125 0 -130 2 -130 50 l0 50 -220 0
-220 0 0 -49z m420 -31 l0 -60 130 0 130 0 0 -672 0 -671 -59 46 -59 47 -1
565 -1 565 -70 0 -70 0 0 -510 0 -510 -70 0 -70 0 0 510 0 510 -60 0 -60 0 0
-510 0 -510 -60 0 -60 0 0 510 0 510 -70 0 -69 0 -6 -402 -5 -402 -55 44 -55
43 0 418 0 419 120 0 c120 0 120 0 120 60 l0 60 200 0 200 0 0 -60z"/>
<path d="M462 1876 c-10 -25 -50 -127 -90 -227 l-73 -180 6 -570 5 -569 328 0
328 0 23 94 c48 189 182 295 391 312 239 19 289 168 113 341 l-106 105 -324
-6 -323 -6 0 162 c0 297 -213 714 -278 544z m156 -201 l82 -205 0 -508 c0
-280 5 -504 11 -498 5 6 19 144 30 308 30 436 -10 388 324 388 l284 0 105
-104 c165 -162 123 -279 -102 -286 -193 -5 -345 -130 -398 -325 l-22 -85 -296
0 -296 0 0 549 0 549 83 211 c102 257 94 257 195 6z"/>
<path d="M475 1358 c-71 -41 -31 -158 55 -158 87 0 119 88 53 147 -42 38 -59
40 -108 11z m84 -47 c31 -37 11 -71 -40 -71 -24 0 -39 14 -39 37 0 65 39 82
79 34z"/>
<path d="M1711 831 c-110 -41 -181 -99 -180 -147 2 -34 -5 -38 -33 -23 -179
96 -473 -76 -454 -265 l6 -66 649 -5 c713 -6 692 -10 672 123 -42 285 -387
485 -660 383z m349 -53 c151 -68 279 -240 280 -373 l0 -45 -630 0 -630 0 0 45
c1 269 435 321 554 66 l28 -61 -9 87 c-6 53 -27 106 -55 135 -119 127 248 243
462 146z"/>
</g>
</svg>
