<?xml version="1.0" standalone="no"?>
<!DOCTYPE svg PUBLIC "-//W3C//DTD SVG 20010904//EN"
 "http://www.w3.org/TR/2001/REC-SVG-20010904/DTD/svg10.dtd">
<svg version="1.0" xmlns="http://www.w3.org/2000/svg"
 width="100.000000pt" height="100.000000pt" viewBox="0 0 900.000000 900.000000"
 preserveAspectRatio="xMidYMid meet">
<metadata>
Created by potrace 1.10, written by Peter Selinger 2001-2011
</metadata>
<g transform="translate(0.000000,900.000000) scale(0.100000,-0.100000)"
fill="#000000" stroke="none">
<path d="M4518 8444 c-17 -5 -18 -33 -18 -412 0 -238 4 -413 10 -422 7 -11 46
-18 162 -26 248 -18 495 -60 643 -109 22 -7 60 -19 85 -26 38 -11 146 -50 254
-92 37 -15 251 -122 331 -167 61 -33 180 -112 270 -177 297 -216 608 -563 802
-893 48 -81 193 -383 193 -401 0 -6 6 -25 14 -42 14 -30 56 -158 90 -274 9
-28 16 -61 16 -71 0 -11 6 -42 14 -68 26 -88 45 -216 61 -421 15 -186 15 -217
0 -405 -17 -217 -37 -339 -95 -578 -11 -48 -38 -132 -51 -165 -5 -11 -19 -51
-32 -90 -31 -89 -63 -162 -133 -300 -101 -199 -255 -437 -288 -443 -13 -3
-103 81 -310 287 -160 160 -297 291 -303 291 -16 0 -22 -11 -32 -62 -5 -24
-23 -95 -41 -158 -17 -63 -44 -164 -60 -225 -47 -183 -59 -225 -65 -234 -3 -6
-9 -29 -14 -53 -8 -38 -33 -131 -63 -238 -5 -19 -16 -60 -23 -90 -28 -113 -74
-280 -80 -289 -3 -5 -9 -29 -14 -53 -5 -24 -23 -95 -41 -158 -17 -63 -38 -140
-46 -170 -21 -87 -41 -160 -59 -225 -18 -62 -23 -81 -73 -275 -17 -63 -36
-133 -42 -155 -7 -22 -18 -62 -26 -89 -23 -78 -29 -75 91 -41 33 9 105 28 160
41 55 14 109 29 120 34 22 9 204 57 273 71 24 5 48 11 53 15 6 3 34 12 62 19
87 22 276 72 397 105 63 18 134 36 158 41 24 5 48 11 53 15 6 3 63 20 127 36
149 38 203 52 277 73 33 9 110 30 170 45 61 16 153 40 205 54 52 15 113 31
135 37 22 6 63 17 90 24 28 8 76 22 108 31 31 8 57 19 57 23 0 3 -143 149
-317 323 l-317 316 26 39 c14 21 33 47 42 58 164 203 386 584 486 835 25 61
30 74 59 144 12 27 21 55 21 62 0 8 4 22 9 32 25 46 91 283 121 432 12 58 26
123 32 144 9 38 17 96 39 296 14 128 14 610 0 735 -6 55 -15 136 -20 181 -5
45 -14 99 -19 120 -6 21 -20 86 -32 144 -12 58 -26 119 -30 135 -34 124 -109
358 -140 435 -45 114 -115 269 -153 340 -16 30 -41 78 -55 105 -41 78 -111
194 -158 263 -24 35 -44 65 -44 67 0 2 -35 50 -77 106 -43 56 -87 114 -98 128
-10 14 -74 87 -141 161 -273 303 -579 549 -934 752 -106 61 -289 152 -385 192
-22 9 -48 21 -57 26 -35 19 -334 121 -423 144 -224 57 -296 72 -455 95 -234
34 -512 56 -552 45z"/>
<path d="M3390 8093 c-14 -2 -43 -10 -65 -17 -22 -8 -96 -28 -165 -46 -69 -17
-145 -37 -170 -44 -46 -13 -136 -38 -225 -62 -259 -68 -325 -86 -360 -95 -49
-13 -124 -33 -190 -53 -27 -8 -70 -19 -95 -25 -49 -10 -121 -29 -215 -56 -65
-18 -138 -38 -225 -59 -30 -8 -107 -29 -170 -46 -63 -18 -133 -36 -155 -41
-22 -5 -51 -13 -65 -18 -23 -8 -81 -24 -205 -56 -134 -35 -181 -49 -190 -57
-5 -5 118 -136 308 -326 174 -175 317 -321 317 -326 0 -4 -17 -28 -39 -54
-189 -229 -419 -628 -541 -942 -12 -30 -26 -66 -32 -80 -17 -42 -85 -257 -118
-375 -5 -16 -18 -79 -30 -140 -12 -60 -25 -124 -31 -141 -8 -29 -16 -85 -40
-304 -14 -127 -14 -609 0 -735 20 -181 30 -259 41 -305 5 -25 19 -88 30 -140
33 -154 114 -436 149 -515 5 -11 19 -45 31 -75 37 -95 42 -107 106 -245 36
-79 128 -247 170 -312 19 -28 34 -54 34 -57 0 -15 190 -281 275 -385 457 -558
1072 -983 1740 -1202 192 -63 193 -63 300 -88 50 -12 108 -26 130 -33 135 -37
690 -91 759 -74 l26 6 0 410 0 410 -22 14 c-16 9 -71 16 -173 20 -190 8 -386
37 -540 81 -190 54 -365 115 -459 159 -28 13 -76 35 -106 49 -112 53 -342 190
-407 242 -7 5 -40 30 -74 55 -152 112 -335 286 -489 466 -71 82 -240 317 -240
333 0 4 -14 27 -30 49 -17 23 -30 44 -30 47 0 2 -19 40 -43 82 -23 43 -58 114
-77 158 -18 44 -40 89 -47 100 -7 11 -13 26 -13 33 0 8 -6 28 -13 45 -25 59
-66 185 -90 277 -52 199 -73 324 -92 559 -16 192 -16 217 0 415 16 195 27 272
69 461 19 86 63 243 76 270 5 11 17 43 26 70 60 186 208 471 353 682 81 117
40 138 380 -202 208 -207 304 -296 315 -292 8 3 18 23 21 44 4 21 11 52 16 68
15 49 71 257 80 295 10 44 32 128 54 205 16 59 63 236 85 325 7 25 16 54 20
65 5 11 20 65 34 120 34 140 54 214 61 224 3 6 9 29 14 53 15 70 68 276 75
287 4 5 10 29 15 53 5 24 23 95 41 158 17 63 44 166 60 229 16 62 34 130 40
150 6 20 18 61 26 91 9 30 20 69 25 86 11 37 12 85 2 83 -5 -1 -19 -4 -33 -6z"/>
<path d="M5580 5945 c-90 -91 -171 -165 -179 -165 -8 0 -44 19 -81 43 -99 64
-100 64 -180 103 -210 102 -331 136 -570 158 -189 18 -398 -2 -585 -55 -116
-33 -341 -135 -386 -175 -8 -8 -20 -14 -25 -14 -16 -1 -203 -149 -253 -200
-135 -141 -220 -258 -304 -420 -96 -186 -167 -454 -167 -627 0 -65 2 -71 23
-77 12 -3 113 -6 224 -6 234 0 223 -5 223 102 0 195 115 456 290 657 14 16
131 121 156 140 52 40 215 129 265 146 166 53 231 66 365 72 149 7 282 -14
429 -67 37 -14 190 -90 208 -104 12 -9 17 -22 13 -33 -3 -10 -74 -86 -156
-168 -83 -82 -147 -152 -143 -155 5 -4 40 -15 78 -24 39 -10 81 -22 94 -27 14
-6 43 -14 65 -19 23 -5 93 -22 156 -40 63 -17 167 -45 230 -61 63 -17 139 -37
167 -45 88 -24 153 -41 263 -69 58 -15 114 -30 125 -35 48 -21 189 -50 198
-41 6 6 5 21 -1 43 -28 90 -90 322 -103 386 -5 24 -11 47 -14 53 -7 10 -27 84
-61 224 -14 55 -29 109 -34 120 -4 11 -13 40 -20 65 -24 97 -69 268 -84 320
-9 30 -21 79 -27 108 -7 28 -17 52 -24 52 -6 0 -85 -74 -175 -165z"/>
<path d="M5666 4474 c-3 -9 -6 -46 -6 -83 0 -148 -73 -355 -188 -531 -31 -47
-199 -224 -243 -255 -225 -161 -425 -228 -684 -228 -139 0 -206 10 -340 50
-127 38 -275 117 -275 147 0 5 68 78 150 161 83 83 150 157 150 163 0 6 -12
14 -27 18 -16 3 -39 10 -52 15 -14 6 -43 14 -65 19 -69 14 -274 67 -285 74 -5
4 -29 10 -53 15 -24 5 -95 23 -158 41 -63 17 -164 44 -225 60 -182 47 -225 59
-234 65 -6 3 -29 9 -53 14 -24 5 -82 19 -131 32 -48 12 -90 19 -94 16 -3 -4
-1 -26 6 -49 7 -24 19 -65 26 -93 8 -27 19 -66 25 -86 6 -20 24 -88 40 -150
16 -63 43 -166 60 -229 18 -63 34 -126 37 -140 3 -14 17 -63 30 -110 14 -47
38 -134 53 -195 16 -60 42 -158 57 -217 15 -59 32 -108 37 -108 5 0 87 77 182
171 l173 172 58 -40 c77 -52 239 -143 256 -143 7 0 17 -4 23 -8 5 -5 38 -19
74 -31 36 -13 74 -27 85 -32 56 -25 260 -58 410 -65 168 -8 434 24 530 66 11
4 49 18 85 31 36 12 106 42 155 67 83 41 118 62 249 152 91 62 277 258 350
368 115 173 157 267 238 531 25 80 49 336 34 352 -6 5 -105 9 -232 9 -193 0
-223 -2 -228 -16z"/>
</g>
</svg>
