<?xml version="1.0" standalone="no"?>
<!DOCTYPE svg PUBLIC "-//W3C//DTD SVG 20010904//EN"
 "http://www.w3.org/TR/2001/REC-SVG-20010904/DTD/svg10.dtd">
<svg version="1.0" xmlns="http://www.w3.org/2000/svg"
 width="30.000000pt" height="30.000000pt" viewBox="0 0 249.000000 240.000000"
 preserveAspectRatio="xMidYMid meet">
<metadata>
Created by potrace 1.10, written by Peter Selinger 2001-2011
</metadata>
<g transform="translate(0.000000,240.000000) scale(0.100000,-0.100000)"
fill="#11C1F3" stroke="none">
<path d="M1055 2211 c-33 -4 -78 -13 -100 -20 -22 -8 -46 -15 -52 -17 -31 -8
-10 -49 60 -118 125 -121 219 -295 228 -420 5 -65 -13 -70 -41 -11 -23 49 -95
151 -139 199 -37 40 -194 157 -231 172 -8 3 -29 12 -47 20 -77 34 -147 3 -265
-118 -49 -49 -88 -94 -88 -99 0 -5 -13 -28 -30 -51 -19 -26 -30 -53 -30 -74
l0 -32 133 -5 c201 -7 279 -31 452 -140 41 -25 50 -62 13 -48 -115 43 -131 46
-313 45 -150 0 -185 -3 -212 -17 -18 -9 -41 -17 -51 -17 -31 0 -100 -56 -122
-99 -17 -34 -20 -59 -20 -172 0 -92 5 -149 16 -188 38 -132 47 -136 123 -55
96 102 220 185 331 224 50 17 170 38 170 29 0 -20 -14 -39 -29 -39 -46 0 -245
-162 -319 -260 -29 -38 -78 -131 -92 -174 -21 -64 1 -133 67 -205 52 -58 192
-171 211 -171 5 0 15 -7 22 -16 8 -9 25 -14 44 -12 l31 3 7 135 c9 163 26 252
59 310 5 8 12 22 15 30 3 8 10 22 15 30 5 8 12 22 16 30 13 31 65 90 79 90 18
0 18 -11 0 -47 -35 -70 -46 -139 -46 -289 1 -104 5 -161 15 -189 8 -22 15 -48
15 -57 0 -25 37 -92 63 -114 54 -47 80 -54 202 -54 73 0 142 6 183 16 143 34
153 57 62 141 -34 31 -81 82 -104 112 -47 63 -106 176 -106 206 -1 11 -7 31
-15 45 -20 35 -20 130 0 130 8 0 15 -7 15 -15 0 -17 19 -54 68 -130 38 -60
170 -191 232 -230 97 -62 112 -68 191 -69 71 -1 77 1 120 34 66 53 199 203
199 226 0 4 6 15 14 23 19 22 27 63 16 81 -7 12 -34 15 -117 16 -190 3 -276
25 -418 108 -90 53 -127 107 -52 77 18 -7 50 -17 72 -21 22 -5 53 -13 68 -19
43 -16 284 -13 332 4 22 8 51 15 65 15 38 1 101 42 136 87 26 34 32 52 37 114
6 83 -5 258 -18 279 -5 8 -11 30 -15 50 -4 29 -10 36 -34 38 -24 3 -41 -9
-110 -76 -135 -132 -269 -202 -414 -219 -68 -8 -72 11 -10 41 67 33 83 43 133
82 152 120 275 296 275 393 0 57 -33 121 -93 182 -58 57 -160 139 -175 139 -5
0 -15 6 -21 14 -17 20 -69 30 -85 17 -9 -8 -11 -33 -8 -88 2 -43 -1 -105 -8
-138 -7 -33 -16 -78 -20 -100 -10 -48 -26 -91 -65 -168 -30 -60 -89 -136 -98
-127 -3 3 3 37 15 75 11 39 23 109 28 156 9 104 -2 296 -18 326 -7 12 -12 30
-12 40 0 20 -61 113 -74 113 -5 0 -18 8 -28 17 -15 13 -42 17 -131 19 -62 1
-139 -1 -172 -5z m235 -802 c61 -32 97 -74 116 -134 15 -47 16 -61 5 -107 -15
-62 -30 -83 -90 -126 -40 -29 -51 -32 -116 -32 -64 0 -77 3 -112 29 -72 52
-88 84 -88 177 0 64 4 86 18 101 9 11 17 24 17 30 0 6 12 19 28 29 85 57 155
68 222 33z"/>
</g>
</svg>
