<?xml version="1.0" standalone="no"?>
<!DOCTYPE svg PUBLIC "-//W3C//DTD SVG 20010904//EN"
 "http://www.w3.org/TR/2001/REC-SVG-20010904/DTD/svg10.dtd">
<svg version="1.0" xmlns="http://www.w3.org/2000/svg"
 width="100.000000pt" height="100.000000pt" viewBox="0 0 450.000000 450.000000"
 preserveAspectRatio="xMidYMid meet">
<metadata>
Created by potrace 1.10, written by Peter Selinger 2001-2011
</metadata>
<g transform="translate(0.000000,450.000000) scale(0.100000,-0.100000)"
fill="#000000" stroke="none">
<path d="M2094 3725 c-4 -10 -2 -26 4 -36 31 -49 4 -255 -53 -409 -43 -116
-175 -412 -205 -460 -5 -8 -21 -37 -35 -65 -15 -27 -34 -63 -44 -80 -10 -16
-32 -57 -50 -90 -18 -32 -40 -71 -49 -85 -9 -14 -22 -34 -29 -45 -7 -11 -31
-51 -53 -88 -111 -182 -143 -258 -195 -463 -30 -120 -15 -356 31 -462 8 -18
14 -38 14 -45 0 -37 125 -247 191 -323 105 -119 278 -274 307 -274 17 0 15 20
-3 26 -8 4 -15 12 -15 19 0 7 -6 15 -14 18 -7 3 -23 25 -35 49 -12 24 -26 50
-30 58 -46 80 -62 211 -44 345 15 115 59 231 123 330 11 17 24 39 30 50 6 11
20 35 31 54 100 167 197 415 207 529 2 34 8 61 12 60 10 -4 105 -119 113 -138
4 -8 16 -28 27 -45 27 -41 90 -173 90 -187 0 -7 6 -30 14 -53 34 -98 49 -300
26 -359 -6 -17 -6 -27 1 -31 15 -10 107 65 113 92 4 14 14 23 26 23 31 0 109
-176 130 -294 23 -133 4 -282 -48 -381 -29 -56 -80 -126 -99 -138 -16 -10 -17
-27 -2 -27 17 0 136 99 205 172 33 35 85 97 115 138 56 78 60 85 98 160 13 25
28 53 33 64 16 31 38 106 59 200 20 95 26 286 10 361 -5 22 -14 66 -21 98 -6
32 -23 93 -36 135 -32 95 -147 333 -174 357 -19 17 -20 17 -26 -1 -16 -49 -43
-91 -89 -139 -56 -57 -132 -112 -142 -101 -4 4 -2 33 5 64 19 94 15 332 -8
464 -25 138 -55 248 -95 343 -25 59 -103 216 -123 246 -9 15 -31 51 -49 80
-17 30 -40 63 -50 74 -10 11 -48 58 -84 105 -37 47 -76 93 -88 104 -19 18 -21
18 -27 1z"/>
<path d="M2538 775 c-4 -4 -183 -7 -399 -7 -458 -1 -503 -4 -507 -34 -6 -45
-6 -45 616 -44 325 0 598 3 606 6 19 7 22 63 4 65 -7 1 -69 3 -138 4 -69 1
-136 5 -150 9 -14 4 -28 4 -32 1z"/>
<path d="M1985 490 c-60 -4 -130 -13 -155 -20 -42 -12 -43 -13 -21 -21 73 -28
658 -36 786 -11 59 11 53 35 -10 44 -84 11 -483 17 -600 8z"/>
</g>
</svg>
