<?xml version="1.0" standalone="no"?>
<!DOCTYPE svg PUBLIC "-//W3C//DTD SVG 20010904//EN"
 "http://www.w3.org/TR/2001/REC-SVG-20010904/DTD/svg10.dtd">
<svg version="1.0" xmlns="http://www.w3.org/2000/svg"
 width="300.000000pt" height="300.000000pt" viewBox="0 0 300.000000 300.000000"
 preserveAspectRatio="xMidYMid meet">
<metadata>
Created by potrace 1.10, written by Peter Selinger 2001-2011
</metadata>
<g transform="translate(0.000000,300.000000) scale(0.100000,-0.100000)"
fill="#1d4461" stroke="none">
<path d="M2653 2669 c-16 -6 -23 -17 -23 -34 0 -16 -6 -25 -15 -25 -8 0 -15 6
-15 14 0 33 -30 46 -105 46 -41 0 -77 -5 -80 -10 -11 -18 6 -50 25 -50 17 0
18 -6 13 -51 l-6 -51 29 4 c27 3 29 6 34 58 3 30 8 54 13 53 4 -2 12 -3 17 -3
7 0 8 -18 4 -51 l-7 -50 37 6 c22 5 48 2 67 -5 42 -18 51 -5 53 74 2 72 -6 88
-41 75z"/>
<path d="M1458 2655 c-3 -3 -3 -28 0 -55 3 -36 0 -56 -10 -68 -19 -22 -48
-116 -48 -154 0 -36 -40 -90 -89 -120 -20 -12 -42 -28 -49 -35 -7 -7 -23 -13
-36 -13 -12 0 -27 -5 -32 -10 -7 -7 -34 -2 -83 15 -76 27 -121 29 -129 8 -2
-9 7 -13 26 -13 17 0 32 -5 34 -11 3 -9 24 -16 56 -18 6 -1 12 -8 12 -16 0
-11 -11 -15 -39 -15 -22 0 -53 -8 -70 -17 -31 -18 -32 -18 -93 15 -57 31 -61
32 -79 16 -11 -9 -19 -25 -19 -36 0 -15 5 -17 28 -11 35 9 62 7 75 -6 12 -12
0 -31 -16 -26 -49 15 -65 14 -69 -3 -4 -12 -27 -23 -84 -36 -43 -11 -81 -21
-84 -23 -8 -7 24 -23 46 -23 11 0 30 -14 42 -30 13 -17 29 -30 37 -30 19 0 19
34 0 50 -21 17 -19 37 4 43 21 5 41 -9 41 -30 0 -22 30 -14 41 11 10 21 17 24
45 19 29 -5 34 -3 34 15 0 11 -6 23 -12 25 -7 3 10 6 38 6 35 1 59 7 77 21 46
36 74 16 31 -23 -20 -18 -25 -32 -22 -58 5 -59 30 -35 64 60 10 30 20 37 65
53 30 9 66 20 80 23 31 6 125 87 134 115 9 28 25 25 25 -5 0 -41 -51 -107
-132 -171 -14 -11 -32 -33 -41 -49 -8 -17 -24 -39 -36 -49 -18 -16 -25 -17
-47 -8 -33 16 -34 16 -34 -12 0 -13 7 -27 16 -30 27 -11 10 -29 -47 -47 -64
-21 -110 -24 -127 -7 -9 9 -15 9 -24 0 -7 -7 -24 -12 -39 -12 -15 0 -30 -4
-33 -9 -10 -16 6 -41 26 -41 16 0 19 -6 16 -32 -2 -25 -8 -33 -23 -33 -16 0
-19 6 -17 28 4 39 -21 35 -64 -10 -30 -31 -35 -42 -31 -69 4 -22 1 -37 -9 -45
-22 -18 -17 -109 6 -109 5 0 11 23 15 51 4 28 13 53 20 55 9 4 11 18 8 43 -7
49 12 63 38 30 22 -29 25 -82 5 -99 -8 -6 -12 -18 -9 -26 8 -21 20 -17 27 8 9
35 24 10 33 -52 7 -46 12 -55 31 -58 20 -3 22 1 22 37 0 22 -4 43 -10 46 -5 3
-10 14 -10 25 0 10 -7 20 -15 24 -19 7 -20 46 -1 46 20 0 27 27 10 41 -16 13
-12 35 14 87 13 26 23 32 48 32 42 0 49 -11 22 -32 l-23 -17 23 -21 c28 -27
52 -19 52 15 0 28 48 85 72 85 20 0 118 97 118 117 0 16 45 53 64 53 16 0 16
-1 1 -17 -24 -24 -65 -90 -65 -106 0 -7 -16 -32 -36 -55 -30 -36 -40 -41 -62
-36 l-27 7 28 -27 c15 -14 34 -26 41 -26 21 0 86 86 86 114 0 14 6 29 13 33 6
4 21 25 31 46 18 35 71 76 83 63 8 -7 -7 -46 -18 -46 -5 0 -9 -9 -9 -21 0 -30
23 -18 34 18 6 18 18 34 29 37 20 5 15 26 -7 26 -8 0 -16 9 -19 21 -5 17 -9
19 -26 9 -12 -6 -21 -15 -21 -20 0 -6 -9 -10 -20 -10 -25 0 -25 6 3 40 12 15
32 41 44 57 19 25 28 28 59 25 35 -4 36 -6 30 -36 -12 -64 -11 -71 4 -69 24 4
85 -192 76 -242 -8 -38 -30 -55 -49 -36 -6 6 -21 11 -34 11 -13 0 -26 7 -29
15 -8 21 -24 19 -24 -2 1 -24 34 -63 54 -63 9 0 16 -5 16 -12 0 -19 -44 -78
-57 -78 -7 0 -13 -11 -13 -24 0 -13 -7 -40 -15 -59 -8 -20 -15 -48 -15 -62 0
-29 -27 -45 -42 -24 -7 10 -8 8 -3 -8 5 -19 3 -22 -10 -16 -20 7 -35 -12 -35
-44 0 -30 11 -29 44 4 20 20 29 24 38 15 11 -11 8 -22 -19 -73 -3 -5 41 -29
53 -29 3 0 3 9 -1 19 -3 11 -1 22 4 25 6 4 8 32 4 72 -5 51 -3 67 9 77 25 19
42 85 28 102 -10 12 -9 16 4 21 9 3 16 12 16 20 0 17 22 18 38 2 7 -7 12 -10
13 -8 0 3 3 18 5 34 9 53 54 94 84 76 16 -10 -29 -92 -58 -105 -15 -6 -22 -19
-22 -36 0 -15 -7 -32 -15 -39 -8 -7 -15 -25 -15 -40 0 -15 7 -33 15 -40 17
-14 21 -60 5 -60 -6 0 -15 10 -21 23 -6 13 -19 28 -28 34 -17 11 -19 7 -24
-35 -6 -52 -2 -61 15 -44 18 18 36 14 43 -8 3 -11 15 -20 25 -20 11 0 23 -8
28 -17 12 -23 4 -79 -14 -94 -17 -14 -18 -45 -3 -54 20 -13 49 26 49 67 0 21
6 47 12 58 11 17 8 24 -20 53 -27 28 -31 38 -26 65 4 21 1 40 -10 57 -18 27
-21 55 -7 55 5 0 19 16 31 36 29 46 55 42 55 -8 0 -40 17 -56 24 -23 2 11 8
23 14 27 8 5 7 14 -2 31 -9 16 -11 39 -6 66 5 29 2 50 -9 72 -9 18 -16 43 -16
56 0 13 -10 37 -22 53 -23 32 -19 45 17 52 11 2 21 11 23 21 3 14 -4 17 -37
17 -29 0 -41 4 -41 14 0 8 -11 28 -25 44 -14 17 -25 36 -25 45 0 8 -11 30 -24
50 -26 38 -29 48 -27 85 1 30 19 28 27 -3 3 -14 10 -25 15 -25 4 0 15 -15 24
-32 15 -33 105 -108 129 -108 21 0 168 -132 179 -162 3 -10 8 -10 16 -2 15 14
59 -3 66 -27 4 -10 14 -14 33 -12 15 2 32 0 37 -4 18 -15 75 -92 75 -102 0
-16 19 -13 67 10 36 18 42 24 32 36 -7 8 -22 12 -34 9 -28 -7 -87 39 -66 52 7
5 28 6 46 2 55 -12 54 16 0 67 -26 24 -53 43 -61 43 -7 0 -28 -9 -46 -20 l-33
-20 46 0 c51 0 77 -18 57 -38 -7 -7 -18 -12 -25 -12 -23 0 -93 25 -93 32 0 5
-5 8 -11 8 -21 0 -117 49 -143 73 -14 13 -26 33 -26 45 0 12 -10 24 -27 31
-16 7 -37 17 -48 24 -11 7 -46 27 -77 45 -60 34 -111 87 -105 106 7 21 37 17
60 -8 14 -14 29 -26 34 -26 6 0 16 -7 23 -15 7 -8 40 -28 74 -44 76 -36 85
-46 95 -100 1 -3 12 6 26 19 17 16 24 32 22 54 -2 28 1 31 31 34 24 3 42 -4
71 -28 l39 -30 41 21 c44 23 53 39 21 39 -11 0 -39 12 -62 26 -34 22 -44 24
-66 15 -27 -13 -58 -6 -81 16 -15 15 -77 10 -95 -7 -10 -10 -2 -14 47 -24 33
-8 27 -26 -9 -26 -28 0 -84 37 -84 57 0 7 -13 19 -29 27 -36 19 -96 95 -122
156 -5 13 -13 27 -17 30 -4 3 -16 24 -26 47 -18 41 -18 80 0 141 6 21 4 22
-48 22 -30 0 -57 -2 -60 -5z"/>
<path d="M1226 2263 c-11 -11 -6 -23 9 -23 8 0 15 4 15 9 0 13 -16 22 -24 14z"/>
<path d="M1950 2100 c0 -5 9 -10 19 -10 11 0 23 5 26 10 4 6 -5 10 -19 10 -14
0 -26 -4 -26 -10z"/>
<path d="M2220 2081 c-30 -17 -263 -32 -276 -18 -10 10 -26 9 -44 -3 -12 -7
-12 -12 4 -29 22 -25 51 -27 60 -6 8 22 42 18 65 -7 l20 -21 20 24 19 24 74
-23 c97 -32 100 -33 112 -69 16 -44 43 -68 60 -53 11 9 16 7 24 -6 6 -11 16
-14 31 -9 22 7 22 7 4 27 -16 18 -16 21 -2 31 9 7 14 19 11 27 -10 31 -126
120 -154 120 -7 0 -20 -4 -28 -9z m59 -41 c31 -26 18 -66 -14 -42 -16 11 -34
49 -28 56 10 9 16 7 42 -14z m82 -71 c12 -23 1 -43 -17 -31 -6 4 -14 17 -18
30 -10 29 19 30 35 1z"/>
<path d="M1178 2061 c-21 -21 -23 -31 -5 -31 14 0 47 31 47 43 0 13 -25 6 -42
-12z"/>
<path d="M968 2006 c-10 -7 -18 -23 -18 -34 0 -11 -4 -24 -10 -27 -17 -10 -11
-26 8 -23 9 1 22 -1 29 -5 6 -4 14 -3 17 2 4 5 2 12 -4 16 -16 10 -11 57 8 71
14 11 14 13 2 13 -8 0 -23 -6 -32 -13z"/>
<path d="M1735 2000 c4 -6 2 -17 -5 -25 -13 -15 4 -51 29 -60 23 -9 26 3 6 25
-14 15 -16 23 -7 32 8 8 7 14 -3 24 -16 16 -29 19 -20 4z"/>
<path d="M1530 1975 c0 -8 5 -15 10 -15 6 0 10 7 10 15 0 8 -4 15 -10 15 -5 0
-10 -7 -10 -15z"/>
<path d="M535 1972 c-46 -11 -36 -27 20 -30 56 -4 83 -19 48 -28 -12 -3 -24
-12 -27 -20 -8 -21 44 -18 59 3 9 12 25 16 59 14 39 -2 46 1 46 17 0 21 -35
43 -65 40 -11 0 -40 2 -65 5 -25 3 -58 2 -75 -1z"/>
<path d="M1350 1928 c1 -18 25 -48 38 -48 6 0 15 -7 20 -16 8 -15 10 -15 15 0
4 9 15 16 26 16 36 0 53 11 40 26 -8 10 -23 12 -49 8 -29 -5 -38 -2 -43 10 -7
19 -47 22 -47 4z"/>
<path d="M740 1900 c0 -5 -14 -17 -32 -26 -33 -17 -112 -93 -105 -101 7 -6 95
45 118 68 21 21 55 25 61 7 4 -10 14 -9 47 2 l43 14 -28 23 c-29 23 -104 33
-104 13z"/>
<path d="M1790 1883 c-1 -16 -9 -51 -18 -79 -10 -29 -16 -68 -14 -87 4 -39 51
-97 79 -97 13 0 10 7 -15 29 -17 17 -32 35 -32 40 0 18 50 12 77 -9 19 -15 30
-17 44 -9 10 5 19 12 19 14 0 12 -57 40 -93 45 -33 4 -42 10 -50 33 -5 15 -6
34 -3 42 7 20 70 20 90 0 8 -8 19 -15 24 -15 6 0 23 -8 40 -17 33 -19 67 -11
58 13 -4 9 -1 23 5 31 10 11 9 18 -4 31 -23 22 -44 3 -28 -26 15 -29 14 -32
-14 -32 -27 0 -31 10 -15 40 5 10 7 26 4 34 -9 23 -34 20 -34 -4 0 -31 -27
-24 -64 15 -40 42 -56 44 -56 8z"/>
<path d="M2237 1904 c-10 -10 33 -86 51 -91 14 -3 16 -14 14 -51 -2 -26 -8
-51 -12 -56 -5 -4 -30 8 -57 29 -39 30 -49 34 -51 20 -5 -23 27 -55 55 -55 31
0 30 -24 -3 -67 -19 -25 -23 -38 -15 -46 15 -15 51 19 51 50 0 19 5 23 30 23
23 0 33 6 39 23 l9 22 10 -25 c13 -35 36 -52 63 -48 34 5 34 25 0 42 -16 9
-32 25 -36 36 -3 11 -15 25 -26 30 -10 6 -19 16 -19 22 0 9 3 9 12 0 33 -33
43 7 15 62 -19 37 -25 42 -39 32 -23 -14 -52 3 -56 33 -3 20 -22 28 -35 15z"/>
<path d="M1310 1843 c0 -10 -7 -29 -16 -41 -17 -25 -16 -26 21 -12 21 8 26 16
23 37 -3 30 -28 44 -28 16z"/>
<path d="M1374 1815 c-3 -14 -12 -25 -20 -25 -8 0 -14 -7 -14 -15 0 -7 -6 -18
-12 -22 -29 -18 -41 -42 -29 -57 8 -9 10 -39 7 -82 -4 -68 0 -94 14 -94 13 0
21 30 27 95 8 89 9 97 17 132 5 18 15 38 22 44 16 13 19 49 4 49 -5 0 -12 -11
-16 -25z"/>
<path d="M725 1800 c3 -5 15 -10 26 -10 10 0 19 5 19 10 0 6 -12 10 -26 10
-14 0 -23 -4 -19 -10z"/>
<path d="M1153 1777 c-4 -6 -25 -18 -45 -25 -43 -15 -102 -67 -93 -82 8 -14
55 -13 55 1 0 19 66 73 103 85 9 4 17 13 17 20 0 17 -26 18 -37 1z"/>
<path d="M630 1751 c0 -5 -10 -13 -22 -17 -25 -8 -47 -32 -48 -51 0 -24 39
-13 62 17 12 17 27 30 33 30 15 0 45 -37 45 -56 0 -8 4 -23 10 -33 7 -14 3
-23 -16 -40 -25 -21 -29 -51 -9 -58 22 -6 37 16 44 68 4 30 15 70 23 90 22 50
9 70 -31 48 -16 -10 -33 -13 -38 -9 -14 14 -53 22 -53 11z"/>
<path d="M1220 1738 c0 -12 -19 -40 -42 -63 -55 -55 -68 -71 -68 -87 1 -8 7
-5 15 6 12 16 18 17 28 7 9 -10 8 -14 -5 -22 -19 -10 -25 -49 -9 -49 5 0 16
-2 23 -5 11 -4 18 10 28 52 17 75 34 103 62 100 28 -3 35 19 8 26 -17 4 -20
10 -14 31 5 20 2 26 -10 26 -10 0 -16 -8 -16 -22z"/>
<path d="M1416 1734 c-35 -24 -37 -28 -23 -39 10 -7 17 -22 17 -33 0 -21 0
-21 25 2 14 13 25 33 25 44 0 11 5 24 10 27 14 9 12 25 -3 25 -7 0 -30 -12
-51 -26z"/>
<path d="M1992 1710 c-6 -16 -16 -30 -21 -30 -24 0 -61 -55 -61 -92 0 -47 25
-52 34 -6 8 39 73 107 82 84 3 -8 3 -19 0 -25 -4 -5 -1 -21 5 -35 9 -19 15
-23 25 -15 30 25 74 -40 74 -108 0 -24 7 -27 34 -17 38 14 13 76 -59 151 -58
60 -69 75 -75 97 -9 31 -27 30 -38 -4z"/>
<path d="M2119 1718 c-3 -34 5 -55 31 -82 26 -26 30 -28 36 -12 4 11 -1 25
-14 39 -11 12 -22 31 -24 41 -4 23 -27 34 -29 14z"/>
<path d="M656 1684 c-3 -9 -6 -29 -6 -45 0 -35 26 -40 32 -6 8 50 -11 89 -26
51z"/>
<path d="M1075 1629 c-4 -6 -18 -8 -30 -5 -32 8 -42 -24 -21 -66 9 -17 16 -48
16 -69 0 -29 7 -44 27 -63 25 -24 26 -28 15 -59 -14 -39 -15 -86 -3 -106 6
-10 13 -11 29 -2 36 19 51 13 54 -21 2 -18 8 -33 13 -33 14 0 19 65 6 78 -22
22 -10 52 35 85 24 17 49 32 54 32 6 0 10 -18 10 -41 0 -28 4 -39 13 -37 19 7
21 72 3 88 -9 7 -16 21 -16 31 0 10 -4 21 -10 24 -6 4 -5 13 2 24 13 22 3 54
-15 49 -6 -3 -13 -14 -15 -26 -3 -16 -10 -22 -29 -22 -15 0 -35 -7 -45 -17
-17 -15 -19 -15 -36 0 -10 10 -26 17 -35 17 -23 0 -30 17 -28 69 1 28 7 50 17
58 9 6 11 14 5 17 -5 4 -13 1 -16 -5z m175 -173 c0 -18 -89 -106 -108 -106 -9
0 -12 11 -10 38 2 30 7 37 22 35 11 -1 33 9 49 23 33 27 47 30 47 10z"/>
<path d="M1730 1626 c0 -14 28 -42 35 -34 2 2 2 14 -2 26 -6 24 -33 31 -33 8z"/>
<path d="M1377 1623 c-10 -9 -8 -61 2 -67 9 -6 21 26 21 57 0 17 -11 22 -23
10z"/>
<path d="M1970 1580 c0 -16 -4 -30 -10 -30 -15 0 -12 -19 4 -36 19 -19 32 -18
16 1 -18 22 -5 30 25 17 21 -10 25 -18 25 -55 0 -50 19 -83 44 -74 20 8 21 50
1 67 -8 7 -15 20 -15 30 0 10 -7 23 -15 30 -8 7 -15 16 -15 21 0 10 -45 59
-54 59 -3 0 -6 -13 -6 -30z"/>
<path d="M837 1516 c-20 -40 -37 -75 -37 -79 0 -16 30 -5 59 22 26 24 31 37
31 74 0 25 -3 48 -8 51 -4 2 -24 -28 -45 -68z"/>
<path d="M1700 1537 c0 -43 21 -77 47 -77 6 0 13 -13 16 -29 5 -24 12 -29 45
-35 22 -3 42 -13 46 -21 8 -22 26 -18 26 5 0 11 -4 20 -9 20 -5 0 -13 9 -16
21 -5 15 -13 19 -29 15 -15 -4 -32 4 -59 29 -20 19 -37 39 -37 44 0 16 36 13
50 -4 7 -8 17 -15 23 -15 5 0 15 -7 22 -17 17 -23 36 -7 29 24 -5 19 -3 24 7
21 8 -3 13 -14 11 -26 -4 -24 14 -62 29 -62 6 0 9 22 7 52 -2 42 -7 55 -24 63
-12 6 -29 17 -38 24 -11 10 -20 11 -27 4 -7 -7 -5 -14 6 -23 8 -7 15 -16 15
-21 0 -15 -47 -10 -60 6 -7 8 -18 15 -25 15 -7 0 -15 7 -19 15 -3 8 -12 15
-21 15 -11 0 -15 -11 -15 -43z"/>
<path d="M1647 1563 c-13 -12 -7 -71 8 -87 8 -8 15 -22 15 -30 0 -9 8 -16 20
-16 11 0 20 5 20 10 0 6 -9 18 -20 27 -12 10 -20 30 -20 48 0 33 -13 59 -23
48z"/>
<path d="M970 1481 c0 -10 7 -24 15 -31 12 -10 16 -9 21 4 3 9 4 23 0 31 -8
21 -36 19 -36 -4z"/>
<path d="M1552 1398 c-18 -24 -24 -58 -10 -58 21 0 38 21 38 47 0 25 -12 30
-28 11z"/>
<path d="M1713 1380 c4 -19 9 -53 13 -75 11 -79 15 -90 25 -74 5 7 9 33 9 56
0 23 4 44 8 47 8 5 45 -59 56 -97 10 -31 26 -8 26 36 -1 45 -39 105 -59 93 -6
-4 -27 5 -47 21 l-37 28 6 -35z"/>
<path d="M1370 1341 c-20 -38 -10 -111 15 -111 18 0 27 42 19 90 -7 44 -18 50
-34 21z"/>
<path d="M1462 1329 c2 -6 8 -10 13 -10 5 0 11 4 13 10 2 6 -4 11 -13 11 -9 0
-15 -5 -13 -11z"/>
<path d="M465 1068 c-3 -7 -4 -193 -3 -413 l3 -400 110 0 c103 0 110 1 110 20
0 18 -8 20 -62 23 -40 2 -63 7 -64 15 0 14 0 699 0 709 1 4 29 8 64 10 54 3
62 5 62 23 0 19 -8 20 -108 23 -80 2 -109 -1 -112 -10z"/>
<path d="M2207 1066 c-10 -24 16 -36 80 -36 35 0 64 -1 64 -2 5 -8 7 -696 3
-710 -4 -15 -17 -18 -68 -18 -63 0 -89 -12 -79 -36 4 -11 30 -14 108 -14 57 0
110 3 119 6 14 5 16 51 16 409 0 358 -2 404 -16 409 -9 3 -62 6 -119 6 -78 0
-104 -3 -108 -14z"/>
<path d="M2062 1008 c-7 -7 -12 -17 -12 -23 0 -28 -35 -79 -71 -103 -47 -33
-48 -45 -6 -57 l32 -10 1 -155 c0 -186 -2 -171 29 -204 40 -44 106 -32 157 29
10 11 17 26 18 33 0 15 -34 16 -60 0 -15 -10 -23 -9 -39 6 -19 18 -21 31 -21
158 l0 138 49 0 c89 0 89 46 1 52 l-45 3 3 61 c3 43 0 63 -10 72 -11 9 -17 9
-26 0z"/>
<path d="M900 850 c-24 -24 -36 -25 -44 -5 -8 21 -54 19 -99 -4 -73 -37 -88
-66 -39 -77 49 -12 52 -19 52 -133 0 -58 -4 -111 -8 -116 -4 -6 -21 -21 -39
-33 -20 -15 -30 -28 -26 -38 4 -12 25 -14 117 -12 103 3 111 4 111 23 0 14 -8
21 -25 24 -14 1 -28 8 -32 15 -4 6 -8 68 -8 137 0 113 2 128 20 144 18 16 22
16 51 2 44 -21 73 -9 77 32 2 18 -2 39 -9 47 -17 21 -75 18 -99 -6z"/>
<path d="M1155 854 c-78 -40 -119 -115 -119 -216 0 -59 4 -72 33 -115 50 -73
74 -87 158 -91 61 -4 78 -1 107 18 43 26 90 85 101 125 42 159 -45 294 -190
295 -35 0 -72 -7 -90 -16z m120 -50 c53 -34 70 -93 66 -222 -1 -35 -7 -50 -32
-73 -39 -36 -66 -37 -107 -1 -24 20 -38 45 -54 101 -21 72 -21 74 -4 125 28
80 76 106 131 70z"/>
<path d="M1578 819 c-73 -74 -94 -156 -65 -250 13 -46 74 -114 113 -129 68
-26 183 -2 225 46 44 52 59 95 59 167 0 84 -22 132 -83 181 -35 28 -47 31
-118 35 l-79 3 -52 -53z m177 -29 c27 -28 65 -122 65 -162 0 -34 -32 -113 -53
-130 -64 -51 -152 26 -158 137 -5 104 -1 125 32 156 41 38 77 38 114 -1z"/>
</g>
</svg>
