<?xml version="1.0" standalone="no"?>
<!DOCTYPE svg PUBLIC "-//W3C//DTD SVG 20010904//EN"
 "http://www.w3.org/TR/2001/REC-SVG-20010904/DTD/svg10.dtd">
<svg version="1.0" xmlns="http://www.w3.org/2000/svg"
 width="30.000000pt" height="30.000000pt" viewBox="0 0 252.000000 243.000000"
 preserveAspectRatio="xMidYMid meet">
<metadata>
Created by potrace 1.10, written by Peter Selinger 2001-2011
</metadata>
<g transform="translate(0.000000,243.000000) scale(0.100000,-0.100000)"
fill="#11C1F3" stroke="none">
<path d="M1152 2273 c-34 -3 -55 -9 -59 -19 -4 -12 33 -80 57 -104 16 -16 89
-163 110 -220 7 -19 16 -57 20 -85 5 -27 14 -66 19 -85 6 -19 11 -81 11 -138
0 -89 -2 -103 -16 -100 -8 2 -22 17 -31 33 -9 17 -20 37 -25 45 -4 8 -13 26
-19 40 -29 70 -159 214 -239 266 -112 73 -186 97 -294 98 -91 1 -93 0 -136
-34 -68 -54 -96 -87 -177 -216 -16 -25 -46 -90 -66 -139 -39 -100 -47 -128
-48 -158 0 -17 -4 -41 -9 -52 -5 -13 -3 -26 7 -36 13 -16 18 -15 66 3 29 11
77 24 107 29 30 5 71 13 90 19 68 20 235 3 360 -36 25 -8 53 -14 63 -14 24 0
79 -39 72 -51 -4 -5 -25 -9 -47 -9 -38 0 -110 -16 -183 -42 -16 -6 -42 -13
-57 -15 -15 -3 -33 -11 -39 -19 -6 -8 -19 -14 -29 -14 -10 0 -23 -7 -30 -15
-7 -8 -18 -15 -25 -15 -35 0 -193 -172 -237 -258 -25 -49 -25 -165 0 -212 19
-38 53 -92 62 -100 3 -3 27 -32 53 -65 53 -68 185 -184 237 -209 25 -12 57
-31 73 -45 9 -7 26 -11 39 -9 22 3 23 7 29 138 7 154 26 231 91 357 37 72 126
206 144 216 25 14 32 -2 17 -44 -21 -62 -19 -325 3 -393 41 -127 111 -245 182
-309 61 -55 172 -74 249 -42 19 8 43 15 52 15 9 0 29 7 45 15 15 8 36 15 46
15 10 0 23 7 30 15 7 8 21 15 31 15 10 0 21 5 24 11 4 5 17 14 28 20 52 22
174 114 216 162 l33 37 -43 20 c-24 11 -51 20 -60 20 -26 0 -186 86 -247 133
-110 85 -283 289 -263 310 6 6 40 -8 101 -42 63 -34 126 -59 185 -71 22 -5 58
-13 80 -19 22 -6 64 -11 94 -11 78 0 236 38 291 71 8 5 25 13 36 18 22 10 56
53 87 108 14 27 17 59 17 181 0 81 -5 163 -11 182 -6 19 -15 53 -19 75 -8 43
-23 89 -47 145 -46 107 -65 113 -113 38 -40 -62 -194 -218 -215 -218 -2 0 -23
-13 -47 -28 -70 -46 -222 -112 -290 -126 -47 -10 -40 12 24 77 90 91 148 167
174 227 3 8 10 24 15 35 40 91 49 143 49 267 0 109 -3 133 -20 166 -32 61
-124 132 -170 132 -9 0 -25 7 -36 15 -10 8 -29 15 -42 15 -12 0 -38 6 -56 14
-36 15 -276 27 -374 19z m204 -920 c34 -22 74 -86 74 -118 0 -36 -35 -102 -66
-121 -15 -11 -45 -17 -78 -17 -69 0 -107 26 -130 88 -23 58 -9 107 42 152 31
27 45 33 85 33 28 0 58 -7 73 -17z"/>
</g>
</svg>
