<?xml version="1.0" standalone="no"?>
<!DOCTYPE svg PUBLIC "-//W3C//DTD SVG 20010904//EN"
 "http://www.w3.org/TR/2001/REC-SVG-20010904/DTD/svg10.dtd">
<svg version="1.0" xmlns="http://www.w3.org/2000/svg"
 width="100.000000pt" height="100.000000pt" viewBox="0 0 900.000000 900.000000"
 preserveAspectRatio="xMidYMid meet">
<metadata>
Created by potrace 1.10, written by Peter Selinger 2001-2011
</metadata>
<g transform="translate(0.000000,900.000000) scale(0.100000,-0.100000)"
fill="#000000" stroke="none">
<path d="M4145 8991 c12 -20 -36 -31 -132 -31 -59 -1 -114 -7 -138 -15 -22 -8
-66 -15 -98 -15 -32 0 -74 -7 -94 -15 -19 -8 -56 -15 -82 -15 -25 -1 -57 -7
-71 -15 -14 -8 -43 -15 -65 -15 -22 0 -51 -7 -65 -15 -14 -8 -38 -15 -55 -15
-16 0 -41 -7 -55 -15 -14 -8 -38 -15 -55 -15 -16 0 -41 -7 -55 -15 -14 -8 -36
-14 -50 -15 -15 0 -31 -5 -37 -11 -6 -6 -26 -14 -44 -19 -47 -11 -99 -30 -132
-46 -16 -8 -35 -14 -42 -14 -7 0 -26 -6 -42 -14 -15 -7 -46 -21 -68 -31 -22
-9 -53 -23 -70 -30 -53 -23 -170 -76 -185 -85 -8 -5 -51 -27 -95 -50 -44 -22
-87 -45 -95 -50 -8 -5 -22 -11 -30 -14 -8 -4 -28 -15 -45 -26 -16 -11 -39 -24
-50 -30 -34 -18 -59 -34 -95 -60 -37 -27 -66 -45 -90 -56 -8 -4 -41 -27 -72
-51 -31 -24 -59 -43 -63 -43 -8 0 -125 -88 -140 -104 -5 -7 -39 -34 -75 -61
-36 -27 -83 -66 -105 -86 -22 -20 -71 -65 -110 -100 -89 -81 -183 -175 -264
-264 -35 -38 -80 -88 -100 -110 -20 -22 -59 -69 -86 -105 -27 -36 -54 -69 -61
-75 -16 -15 -104 -132 -104 -140 0 -4 -19 -32 -43 -63 -24 -31 -47 -64 -51
-72 -11 -24 -29 -53 -56 -90 -26 -36 -42 -61 -60 -95 -6 -11 -19 -33 -30 -50
-11 -16 -22 -37 -26 -45 -3 -8 -9 -22 -14 -30 -5 -8 -28 -51 -50 -95 -23 -44
-45 -87 -50 -95 -9 -15 -62 -132 -85 -185 -7 -16 -21 -48 -30 -70 -10 -22 -24
-53 -31 -68 -8 -16 -14 -36 -14 -46 0 -9 -5 -22 -11 -28 -6 -6 -14 -26 -19
-44 -11 -47 -30 -99 -46 -132 -8 -16 -14 -38 -14 -50 -1 -12 -7 -33 -15 -47
-8 -14 -15 -38 -15 -55 0 -16 -7 -41 -15 -55 -8 -14 -15 -38 -15 -55 0 -16 -7
-41 -15 -55 -8 -14 -15 -43 -15 -65 0 -22 -7 -51 -15 -65 -8 -14 -14 -46 -15
-71 0 -26 -7 -63 -15 -82 -8 -20 -15 -64 -15 -97 0 -34 -5 -71 -12 -83 -20
-36 -30 -251 -30 -627 0 -376 10 -591 30 -627 7 -12 12 -49 12 -83 0 -33 7
-77 15 -97 8 -19 15 -56 15 -82 1 -25 7 -57 15 -71 8 -14 15 -43 15 -65 0 -22
7 -51 15 -65 8 -14 15 -38 15 -55 0 -16 7 -41 15 -55 8 -14 15 -38 15 -55 0
-16 7 -41 15 -55 8 -14 14 -36 15 -50 0 -15 5 -31 11 -37 6 -6 14 -26 19 -44
11 -47 30 -99 46 -132 8 -16 14 -35 14 -42 0 -7 6 -26 14 -42 7 -15 21 -45 30
-66 38 -91 103 -234 116 -257 5 -8 27 -51 50 -95 22 -44 45 -87 50 -95 5 -8
11 -22 14 -30 4 -8 15 -28 26 -45 11 -16 24 -39 30 -50 18 -34 34 -59 60 -95
27 -37 45 -66 56 -90 4 -8 27 -41 51 -72 24 -31 43 -59 43 -63 0 -8 88 -125
104 -140 7 -5 34 -39 61 -75 27 -36 66 -83 86 -105 20 -22 65 -71 100 -110 81
-89 175 -183 264 -264 39 -35 88 -80 110 -100 22 -20 69 -59 105 -86 36 -27
70 -54 75 -61 15 -16 132 -104 140 -104 4 0 32 -19 63 -43 31 -24 64 -47 72
-51 24 -11 53 -29 90 -56 36 -26 61 -42 95 -60 11 -6 34 -19 50 -30 17 -11 37
-22 45 -26 8 -3 22 -9 30 -14 8 -5 51 -28 95 -50 44 -23 87 -45 95 -50 15 -9
132 -62 185 -85 17 -7 48 -21 70 -30 22 -10 53 -24 68 -31 16 -8 36 -14 46
-14 9 0 22 -5 28 -11 6 -6 26 -14 44 -19 47 -11 99 -30 132 -46 16 -8 38 -14
50 -14 12 -1 33 -7 47 -15 14 -8 39 -15 55 -15 17 0 41 -7 55 -15 14 -8 39
-15 55 -15 17 0 41 -7 55 -15 14 -8 43 -15 65 -15 22 0 51 -7 65 -15 14 -8 46
-14 71 -15 26 0 63 -7 82 -15 20 -8 64 -15 97 -15 34 0 71 -5 83 -12 36 -20
251 -30 627 -30 376 0 591 10 627 30 12 7 49 12 83 12 33 0 77 7 97 15 19 8
56 15 82 15 25 1 57 7 71 15 14 8 43 15 65 15 22 0 51 7 65 15 14 8 39 15 55
15 17 0 41 7 55 15 14 8 39 15 55 15 17 0 41 7 55 15 14 8 35 14 47 15 12 0
34 6 50 14 33 16 85 35 132 46 18 5 38 13 44 19 6 6 19 11 28 11 10 0 30 6 46
14 15 7 44 20 63 28 68 28 237 105 260 118 8 5 51 27 95 50 44 22 87 45 95 50
8 5 22 11 30 14 8 4 29 15 45 26 17 11 39 24 50 30 34 18 59 34 95 60 37 27
66 45 90 56 8 4 41 27 72 51 31 24 59 43 63 43 8 0 125 88 140 104 6 7 39 34
75 61 36 27 83 66 105 86 22 20 72 65 110 100 89 81 183 175 264 264 35 39 80
88 100 110 20 22 59 69 86 105 27 36 54 70 61 75 16 15 104 132 104 140 0 4
19 32 43 63 24 31 47 64 51 72 11 24 29 53 56 90 26 36 42 61 60 95 6 11 19
34 30 50 11 17 22 37 26 45 3 8 9 22 14 30 5 8 28 51 50 95 23 44 45 87 50 95
9 15 62 132 85 185 7 17 21 48 30 70 10 22 24 53 31 68 8 16 14 36 14 46 0 9
5 22 11 28 6 6 14 26 19 44 11 47 30 99 46 132 8 16 14 38 14 50 1 12 7 33 15
47 8 14 15 39 15 55 0 17 7 41 15 55 8 14 15 39 15 55 0 17 7 41 15 55 8 14
15 43 15 65 0 22 7 51 15 65 8 14 14 46 15 71 0 26 7 63 15 82 8 20 15 62 15
94 0 32 7 76 15 98 8 24 14 79 15 138 0 96 11 144 31 132 5 -4 9 126 9 345 0
219 -4 349 -9 345 -20 -12 -31 36 -31 132 -1 59 -7 114 -15 138 -8 22 -15 66
-15 98 0 32 -7 74 -15 94 -8 19 -15 56 -15 82 -1 25 -7 57 -15 71 -8 14 -15
43 -15 65 0 22 -7 51 -15 65 -8 14 -15 39 -15 55 0 17 -7 41 -15 55 -8 14 -15
39 -15 55 0 17 -7 41 -15 55 -8 14 -14 36 -15 51 0 14 -5 30 -11 36 -6 6 -14
26 -19 44 -11 47 -30 99 -46 132 -8 16 -14 35 -14 42 0 7 -6 26 -14 42 -7 15
-21 45 -30 66 -38 91 -103 234 -116 257 -5 8 -27 51 -50 95 -22 44 -45 87 -50
95 -5 8 -11 22 -14 30 -4 8 -15 29 -26 45 -11 17 -24 39 -30 50 -18 34 -34 59
-60 95 -27 37 -45 66 -56 90 -4 8 -27 41 -51 72 -24 31 -43 59 -43 63 0 8 -88
125 -104 140 -7 6 -34 39 -61 75 -27 36 -66 83 -86 105 -20 22 -65 72 -100
110 -81 89 -175 183 -264 264 -38 35 -88 80 -110 100 -22 20 -69 59 -105 86
-36 27 -69 54 -75 61 -15 16 -132 104 -140 104 -4 0 -32 19 -63 43 -31 24 -64
47 -72 51 -24 11 -53 29 -90 56 -36 26 -61 42 -95 60 -11 6 -33 19 -50 30 -16
11 -37 22 -45 26 -8 3 -22 9 -30 14 -8 5 -51 28 -95 50 -44 23 -87 45 -95 50
-15 9 -132 62 -185 85 -16 7 -48 21 -70 30 -22 10 -53 24 -68 31 -16 8 -36 14
-46 14 -9 0 -22 5 -28 11 -6 6 -26 14 -44 19 -47 11 -99 30 -132 46 -16 8 -38
14 -50 14 -12 1 -33 7 -47 15 -14 8 -38 15 -55 15 -16 0 -41 7 -55 15 -14 8
-38 15 -55 15 -16 0 -41 7 -55 15 -14 8 -43 15 -65 15 -22 0 -51 7 -65 15 -14
8 -46 14 -71 15 -26 0 -63 7 -82 15 -20 8 -62 15 -94 15 -32 0 -76 7 -98 15
-24 8 -79 14 -138 15 -96 0 -144 11 -132 31 4 5 -126 9 -345 9 -219 0 -349 -4
-345 -9z m655 -541 c129 -8 271 -26 344 -42 26 -6 74 -14 105 -19 59 -8 156
-31 341 -80 25 -6 61 -17 80 -24 19 -7 51 -18 70 -24 19 -7 49 -17 65 -21 53
-15 120 -41 129 -51 6 -5 18 -9 27 -9 10 0 30 -6 46 -14 15 -8 60 -29 98 -46
86 -39 258 -125 305 -152 19 -11 57 -32 83 -47 64 -35 68 -37 172 -106 102
-67 345 -249 389 -292 17 -15 42 -37 57 -49 73 -54 267 -251 409 -414 126
-145 321 -421 401 -567 15 -26 36 -64 47 -83 27 -47 113 -219 152 -305 17 -38
38 -83 46 -98 8 -16 14 -36 14 -46 0 -9 4 -21 9 -27 10 -9 36 -76 51 -129 4
-16 14 -46 21 -65 6 -19 17 -51 24 -70 7 -19 18 -55 24 -80 49 -185 72 -282
80 -341 5 -31 13 -79 19 -105 67 -304 67 -1004 0 -1308 -6 -26 -14 -74 -19
-105 -8 -59 -31 -156 -80 -341 -6 -25 -17 -61 -24 -80 -7 -19 -18 -51 -24 -70
-7 -19 -17 -48 -21 -65 -15 -53 -41 -120 -51 -130 -5 -5 -9 -17 -9 -26 0 -10
-6 -30 -14 -46 -8 -15 -29 -59 -46 -98 -39 -86 -125 -258 -152 -305 -11 -19
-32 -57 -47 -83 -80 -146 -275 -422 -401 -567 -142 -163 -336 -360 -409 -414
-15 -12 -40 -34 -57 -49 -44 -43 -287 -225 -389 -292 -104 -69 -108 -71 -172
-106 -26 -15 -64 -36 -83 -47 -43 -25 -222 -114 -310 -154 -36 -16 -78 -36
-93 -44 -16 -8 -36 -14 -46 -14 -9 0 -21 -4 -26 -9 -10 -10 -77 -36 -130 -51
-16 -4 -46 -14 -65 -21 -19 -6 -51 -17 -70 -24 -19 -7 -55 -18 -80 -24 -185
-49 -282 -72 -341 -80 -31 -5 -79 -13 -105 -19 -304 -67 -1004 -67 -1308 0
-26 6 -74 14 -105 19 -59 8 -156 31 -341 80 -25 6 -61 17 -80 24 -19 7 -51 18
-70 24 -19 7 -48 17 -65 21 -53 15 -120 41 -130 51 -5 5 -17 9 -26 9 -10 0
-30 6 -46 14 -15 8 -59 29 -98 46 -86 39 -258 125 -305 152 -19 11 -57 32 -83
47 -64 35 -68 37 -172 106 -102 67 -345 249 -389 292 -17 15 -42 37 -57 49
-73 54 -267 251 -409 414 -126 145 -321 421 -401 567 -15 26 -36 64 -47 83
-27 47 -113 219 -152 305 -17 39 -38 83 -46 98 -8 16 -14 35 -14 42 0 7 -6 26
-14 42 -18 36 -61 152 -76 208 -5 17 -13 44 -18 60 -23 68 -65 228 -85 325
-29 137 -37 184 -47 270 -5 47 -15 108 -22 135 -18 70 -18 800 0 870 7 28 17
88 22 135 10 86 18 133 47 270 20 97 62 257 85 325 5 17 13 44 18 60 15 56 58
172 76 208 8 16 14 35 14 42 0 7 6 26 14 42 8 15 29 60 46 98 45 99 126 260
166 330 19 33 39 69 45 80 52 102 275 414 389 545 142 163 336 360 409 414 15
12 40 34 57 49 44 43 287 225 389 292 104 69 108 71 172 106 26 15 64 36 83
47 47 27 219 113 305 152 39 17 83 38 98 46 16 8 36 14 46 14 9 0 21 4 26 9
10 10 77 36 130 51 17 4 46 14 65 21 19 6 51 17 70 24 19 7 55 18 80 24 185
49 282 72 341 80 31 5 79 13 105 19 73 16 216 34 329 42 143 9 500 10 635 0z"/>
<path d="M4045 7628 c-3 -7 -4 -742 -3 -1633 l3 -1620 460 0 460 0 0 1630 0
1630 -458 3 c-361 2 -459 0 -462 -10z"/>
<path d="M3575 7008 c-27 -11 -64 -23 -80 -27 -17 -4 -39 -13 -50 -19 -11 -5
-49 -24 -85 -40 -106 -49 -153 -72 -185 -93 -16 -10 -40 -23 -53 -29 -67 -29
-346 -229 -450 -323 -144 -128 -342 -349 -428 -477 -17 -25 -44 -65 -61 -90
-17 -25 -41 -63 -53 -85 -12 -22 -30 -56 -42 -75 -45 -79 -134 -262 -148 -308
-5 -15 -18 -52 -30 -82 -12 -30 -27 -75 -35 -100 -7 -25 -20 -70 -30 -100 -9
-30 -20 -78 -25 -107 -4 -28 -11 -56 -13 -60 -3 -5 -16 -70 -29 -144 -20 -120
-22 -165 -21 -434 0 -241 4 -313 17 -368 9 -38 16 -84 16 -104 0 -20 6 -59 14
-87 8 -28 22 -80 31 -116 21 -82 42 -154 62 -205 8 -22 21 -57 29 -77 8 -21
21 -57 31 -80 20 -51 137 -292 161 -330 9 -15 35 -55 56 -90 168 -268 457
-578 688 -736 25 -18 53 -38 60 -44 18 -17 69 -53 88 -61 8 -4 29 -16 45 -27
17 -11 39 -24 50 -30 11 -6 34 -19 50 -29 17 -11 50 -30 75 -42 137 -66 227
-108 245 -112 11 -3 45 -15 75 -27 120 -46 136 -52 160 -56 14 -3 48 -11 75
-19 137 -38 226 -55 395 -77 112 -14 533 -14 635 0 210 30 243 35 280 48 23 8
49 14 59 14 10 0 39 6 65 14 25 8 75 24 111 35 36 11 90 29 120 41 30 12 67
25 81 30 49 15 335 161 424 217 263 164 547 425 736 678 58 77 108 147 112
155 4 8 16 29 27 45 11 17 23 37 27 45 4 8 16 29 28 45 32 48 136 265 169 353
40 105 49 129 62 160 8 18 14 40 14 49 0 9 7 41 16 72 43 151 56 218 84 426
19 140 24 382 10 495 -6 58 -16 141 -20 185 -4 44 -12 100 -18 125 -6 25 -18
79 -28 120 -22 102 -62 230 -104 340 -12 30 -25 67 -30 81 -7 23 -20 50 -42
89 -4 8 -11 22 -14 30 -15 35 -77 157 -95 185 -10 17 -23 39 -29 50 -15 29
-32 56 -62 96 -16 20 -28 40 -28 44 0 7 -118 164 -135 180 -6 6 -29 32 -51 60
-150 190 -455 444 -704 588 -66 38 -276 141 -340 167 -30 12 -70 28 -88 36
-18 7 -50 17 -72 20 l-40 7 0 -480 0 -480 23 -20 c12 -11 29 -23 37 -27 17 -8
35 -19 100 -60 225 -145 445 -374 587 -611 22 -37 110 -220 125 -260 40 -103
47 -124 62 -180 84 -324 83 -615 -4 -970 -7 -27 -19 -62 -26 -77 -8 -14 -14
-33 -14 -42 0 -24 -109 -257 -150 -321 -11 -16 -23 -37 -27 -45 -12 -26 -115
-164 -163 -220 -128 -148 -312 -301 -475 -396 -59 -34 -203 -102 -272 -128
-131 -49 -145 -53 -313 -88 -89 -18 -140 -21 -330 -22 -229 0 -346 12 -455 50
-23 8 -52 14 -66 14 -14 0 -34 7 -45 15 -10 8 -27 15 -36 15 -22 0 -99 33
-258 110 -129 62 -317 202 -446 333 -116 118 -233 265 -267 337 -4 8 -16 29
-27 45 -11 17 -24 39 -29 50 -5 11 -26 56 -46 100 -21 44 -41 91 -46 105 -4
14 -19 57 -33 95 -14 39 -26 80 -26 91 0 12 -7 38 -15 57 -8 20 -15 53 -15 73
0 20 -7 64 -16 98 -13 50 -15 100 -11 271 2 116 10 237 17 270 26 131 77 314
92 329 4 6 8 17 8 25 0 8 28 71 62 140 64 130 133 238 223 351 55 68 219 230
295 291 47 38 178 129 185 129 3 0 27 14 55 31 l50 31 -2 486 c-2 313 -7 486
-13 488 -5 1 -32 -7 -60 -18z"/>
</g>
</svg>
