<?xml version="1.0" standalone="no"?>
<!DOCTYPE svg PUBLIC "-//W3C//DTD SVG 20010904//EN"
 "http://www.w3.org/TR/2001/REC-SVG-20010904/DTD/svg10.dtd">
<svg version="1.0" xmlns="http://www.w3.org/2000/svg"
 width="30.000000pt" height="30.000000pt" viewBox="0 0 252.000000 252.000000"
 preserveAspectRatio="xMidYMid meet">
<metadata>
Created by potrace 1.10, written by Peter Selinger 2001-2011
</metadata>
<g transform="translate(0.000000,252.000000) scale(0.100000,-0.100000)"
fill="#000000" stroke="none">
<path d="M1160 2283 c-119 -28 -218 -73 -293 -133 -70 -57 -157 -164 -157
-195 0 -8 -4 -17 -10 -20 -15 -9 -12 -78 5 -118 28 -68 148 -147 223 -147 77
0 194 -54 239 -110 18 -22 16 -29 -13 -40 -14 -6 -50 -35 -80 -65 -45 -45 -59
-53 -73 -45 -26 14 -102 38 -185 61 -93 24 -269 26 -341 3 -165 -53 -245 -148
-245 -290 0 -87 42 -237 96 -344 63 -123 202 -275 299 -325 28 -15 57 -30 65
-34 49 -26 97 -35 205 -38 l120 -4 43 38 c23 21 42 47 42 56 0 10 5 28 12 40
21 39 9 136 -27 222 -29 68 -37 132 -25 189 6 31 15 58 20 61 5 3 29 -6 54
-19 25 -13 67 -30 95 -37 44 -11 50 -16 54 -43 11 -75 30 -153 43 -178 8 -14
14 -34 14 -43 0 -15 15 -48 41 -95 5 -8 12 -22 16 -30 3 -8 27 -41 51 -74 91
-119 221 -184 315 -157 141 42 270 153 368 319 27 45 49 87 49 92 0 5 6 24 14
42 40 95 47 136 47 264 0 105 -4 140 -21 187 -36 102 -83 168 -141 197 -47 24
-67 25 -137 3 -55 -18 -98 -54 -202 -168 -51 -56 -98 -84 -150 -87 l-35 -3 -6
68 c-3 37 -11 73 -17 79 -23 23 -14 62 21 86 89 60 267 275 267 322 0 8 6 24
14 35 18 26 30 159 21 231 -6 51 -12 62 -58 109 -29 28 -74 62 -102 74 -27 13
-62 30 -77 37 -14 8 -37 14 -50 14 -12 0 -45 7 -72 15 -64 19 -249 18 -336 -2z
m210 -919 c33 -32 35 -38 35 -100 0 -65 -1 -67 -39 -100 -35 -30 -46 -34 -95
-34 -43 1 -62 6 -82 23 -60 52 -75 119 -41 176 53 88 153 103 222 35z"/>
</g>
</svg>
