<?xml version="1.0" standalone="no"?>
<!DOCTYPE svg PUBLIC "-//W3C//DTD SVG 20010904//EN"
 "http://www.w3.org/TR/2001/REC-SVG-20010904/DTD/svg10.dtd">
<svg version="1.0" xmlns="http://www.w3.org/2000/svg"
 width="28.000000pt" height="35.000000pt" viewBox="0 0 900.000000 663.000000"
 preserveAspectRatio="xMidYMid meet">
<metadata>
Created by potrace 1.10, written by Peter Selinger 2001-2011
</metadata>
<g transform="translate(0.000000,663.000000) scale(0.100000,-0.100000)"
fill="#000000" stroke="none">
<path d="M4190 5709 c-47 -5 -132 -13 -190 -18 -139 -12 -254 -29 -316 -47
-28 -8 -67 -14 -86 -14 -20 0 -55 -7 -78 -15 -23 -8 -54 -15 -69 -15 -14 0
-35 -7 -45 -15 -11 -8 -33 -15 -49 -15 -26 0 -70 -11 -162 -42 -16 -6 -41 -12
-55 -15 -14 -2 -38 -10 -55 -18 -40 -17 -93 -35 -130 -44 -17 -4 -40 -13 -52
-19 -12 -7 -30 -12 -41 -12 -11 0 -25 -7 -32 -15 -7 -8 -25 -15 -40 -15 -15 0
-33 -7 -40 -15 -7 -8 -23 -15 -35 -15 -12 0 -28 -7 -35 -15 -7 -8 -19 -15 -28
-15 -14 0 -242 -106 -282 -131 -8 -5 -22 -12 -30 -15 -8 -3 -22 -10 -30 -15
-8 -5 -22 -12 -30 -16 -8 -3 -48 -26 -87 -50 -40 -23 -75 -43 -77 -43 -3 0
-33 -19 -68 -42 -83 -56 -100 -66 -120 -74 -9 -3 -19 -12 -22 -20 -3 -8 -14
-14 -25 -14 -11 0 -24 -6 -28 -14 -4 -7 -39 -35 -78 -61 -78 -53 -97 -68 -205
-158 -41 -35 -88 -73 -105 -86 -16 -12 -71 -62 -120 -109 -50 -48 -106 -100
-125 -115 -33 -27 -35 -31 -35 -91 l0 -63 232 -232 c212 -213 295 -282 308
-261 3 4 16 11 30 14 14 4 51 33 83 65 31 32 64 62 73 67 9 5 45 35 80 67 35
33 75 69 89 81 39 35 188 146 195 146 4 0 32 19 63 43 68 50 89 64 120 77 12
5 22 14 22 19 0 5 8 11 17 15 10 3 32 15 48 26 17 11 37 23 45 26 8 3 20 8 25
10 6 2 24 13 40 24 17 10 67 38 113 61 45 22 85 45 88 50 3 5 18 9 33 9 16 0
34 7 41 15 7 8 20 15 30 15 10 0 23 7 30 15 7 8 21 15 30 15 10 0 31 6 47 14
15 8 44 21 63 29 19 8 52 22 73 31 21 9 46 16 55 16 10 0 27 7 38 15 10 8 31
15 45 15 14 0 34 7 45 15 10 8 40 15 65 15 27 0 51 6 58 14 7 8 31 16 54 19
23 3 62 10 87 17 106 27 139 34 200 39 36 4 71 10 78 15 15 9 120 19 393 37
123 9 213 9 340 1 257 -16 397 -30 411 -39 7 -4 42 -11 78 -15 74 -8 161 -25
205 -40 17 -6 51 -13 78 -17 26 -4 53 -13 59 -19 7 -7 29 -12 51 -12 21 0 48
-5 60 -12 12 -6 35 -15 52 -19 63 -15 259 -92 348 -135 16 -8 34 -14 42 -14 7
0 18 -7 25 -15 7 -8 19 -15 28 -15 19 0 100 -38 108 -51 3 -5 13 -9 23 -9 10
0 24 -7 31 -15 7 -8 18 -15 26 -15 7 0 33 -13 57 -30 25 -16 49 -30 54 -30 6
0 28 -13 49 -28 21 -16 46 -31 54 -35 8 -4 29 -16 45 -27 17 -11 39 -24 50
-29 12 -5 32 -21 45 -35 14 -14 29 -26 33 -26 5 0 35 -20 67 -45 32 -25 62
-45 65 -45 4 0 17 -9 29 -19 11 -10 42 -37 67 -60 25 -23 49 -41 53 -41 4 0
33 -24 64 -53 225 -211 236 -218 290 -195 29 12 305 277 450 432 55 59 62 71
62 107 0 40 -21 84 -52 107 -9 6 -36 31 -60 55 -82 82 -206 191 -258 227 -19
14 -63 49 -97 77 -33 29 -64 53 -68 53 -3 0 -50 33 -103 73 -53 40 -104 76
-112 80 -8 4 -28 16 -45 27 -16 11 -37 23 -45 27 -8 3 -28 16 -45 29 -16 12
-52 34 -80 49 -27 14 -63 35 -80 45 -57 35 -414 210 -428 210 -8 0 -20 7 -27
15 -7 8 -20 15 -30 15 -10 0 -45 14 -78 30 -34 17 -68 30 -77 30 -9 0 -29 6
-43 14 -30 15 -74 30 -147 52 -27 8 -63 19 -80 24 -16 5 -50 14 -75 21 -25 6
-60 18 -78 25 -18 8 -47 14 -65 14 -18 1 -43 7 -57 15 -14 8 -37 14 -51 15
-15 0 -43 7 -62 15 -20 8 -53 15 -73 15 -21 0 -60 7 -88 14 -61 18 -170 33
-321 46 -60 5 -138 13 -173 18 -82 12 -523 12 -632 1z m707 -108 c78 -5 146
-12 152 -15 5 -4 50 -11 98 -15 48 -5 115 -15 148 -21 165 -32 214 -42 256
-56 26 -8 55 -14 65 -14 10 0 36 -6 59 -14 22 -8 69 -22 105 -31 36 -9 81 -23
100 -30 78 -27 106 -37 135 -45 39 -11 110 -37 133 -49 9 -5 37 -17 62 -26 45
-18 79 -32 180 -78 30 -13 62 -27 70 -31 8 -3 22 -10 30 -15 8 -5 22 -12 30
-15 8 -3 22 -10 30 -15 8 -5 33 -18 55 -29 22 -11 56 -29 75 -41 19 -11 49
-27 65 -35 60 -30 132 -74 270 -165 68 -44 345 -248 355 -260 3 -4 28 -24 55
-46 28 -22 57 -46 66 -55 40 -38 190 -173 213 -191 14 -11 26 -25 26 -30 0
-11 -445 -459 -456 -459 -4 0 -46 37 -93 83 -114 109 -162 152 -245 216 -37
29 -75 59 -85 66 -32 27 -169 123 -230 161 -34 21 -74 47 -89 56 -15 10 -36
22 -47 28 -11 6 -36 20 -55 31 -133 81 -475 238 -625 288 -34 11 -72 24 -85
29 -31 12 -130 40 -302 86 -116 31 -295 62 -518 91 -172 21 -627 21 -800 0
-272 -35 -452 -69 -640 -122 -101 -29 -155 -45 -180 -56 -14 -5 -38 -13 -55
-17 -16 -5 -55 -18 -85 -30 -30 -12 -69 -26 -87 -31 -18 -5 -35 -14 -38 -19
-4 -6 -12 -10 -20 -10 -13 0 -192 -79 -225 -100 -8 -5 -51 -27 -95 -50 -44
-22 -87 -45 -95 -50 -8 -5 -55 -33 -103 -62 -161 -96 -328 -213 -432 -301
-129 -109 -198 -171 -253 -224 -35 -35 -66 -63 -69 -63 -3 0 -107 101 -230
224 -174 174 -223 229 -219 243 4 10 24 32 45 48 22 17 90 76 153 131 122 110
334 282 358 292 8 3 17 8 20 12 10 11 221 152 255 170 11 6 34 19 50 30 17 11
39 24 50 30 11 6 47 26 80 45 57 33 295 152 360 180 17 7 48 21 70 31 54 24
92 39 145 59 25 9 60 23 78 31 18 8 39 14 46 14 8 0 27 7 42 15 16 8 37 15 46
15 10 0 32 6 50 14 60 26 299 89 448 120 41 8 109 22 150 31 41 8 91 15 112
15 20 0 72 7 115 15 43 8 114 16 158 16 44 1 109 5 145 9 78 10 448 5 647 -9z"/>
<path d="M4218 4419 c-10 -5 -70 -12 -135 -16 -73 -4 -125 -11 -138 -19 -11
-8 -42 -14 -70 -14 -27 -1 -68 -7 -90 -15 -22 -8 -53 -15 -70 -15 -16 0 -39
-7 -49 -15 -11 -8 -36 -15 -55 -15 -20 -1 -47 -7 -61 -15 -14 -8 -37 -14 -51
-15 -14 0 -34 -7 -45 -15 -10 -8 -29 -15 -41 -15 -12 0 -34 -6 -50 -14 -54
-27 -104 -46 -121 -46 -9 0 -26 -7 -36 -15 -11 -8 -27 -15 -37 -15 -9 0 -22
-7 -29 -15 -7 -8 -23 -15 -35 -15 -12 0 -28 -7 -35 -15 -7 -8 -20 -15 -30 -15
-10 0 -23 -7 -30 -15 -7 -8 -20 -15 -30 -15 -10 0 -23 -7 -30 -15 -7 -8 -19
-15 -27 -15 -8 0 -29 -11 -46 -24 -18 -14 -43 -30 -57 -35 -14 -6 -38 -20 -55
-31 -16 -11 -37 -23 -45 -27 -8 -3 -31 -19 -51 -35 -20 -15 -39 -28 -42 -28
-11 0 -142 -93 -150 -106 -4 -8 -13 -14 -19 -14 -6 0 -27 -15 -47 -32 -20 -18
-59 -51 -86 -73 -28 -22 -92 -81 -144 -132 l-95 -91 1 -51 1 -50 233 -234
c129 -129 248 -242 266 -251 40 -20 67 -20 83 -1 7 8 17 15 23 15 6 0 47 35
92 78 44 42 104 96 131 119 49 40 254 182 284 196 8 4 29 16 45 27 28 18 35
22 68 35 6 3 20 9 30 15 9 5 25 15 35 20 9 6 24 13 32 16 15 6 27 11 143 63
37 17 71 31 76 31 5 0 22 7 37 15 16 8 43 15 60 15 17 0 37 6 43 14 7 8 31 16
54 19 23 3 60 10 82 15 79 21 181 41 235 47 30 3 78 9 105 15 65 12 434 11
505 -1 30 -5 87 -13 125 -18 88 -11 177 -28 235 -47 25 -8 57 -14 71 -14 14 0
34 -7 45 -15 10 -8 31 -15 46 -15 26 0 69 -15 131 -46 16 -8 34 -14 42 -14 7
0 18 -7 25 -15 7 -8 21 -15 30 -15 21 0 251 -115 301 -151 19 -13 50 -32 69
-43 19 -10 61 -38 92 -62 31 -24 60 -44 65 -44 5 0 16 -8 24 -17 9 -10 33 -31
54 -48 21 -16 70 -60 109 -97 123 -116 151 -129 206 -90 14 9 132 126 263 259
253 258 257 263 220 321 -31 47 -270 272 -290 272 -5 0 -20 13 -33 30 -14 16
-29 29 -34 30 -6 0 -19 8 -30 19 -25 22 -185 131 -193 131 -3 0 -22 12 -42 28
-20 15 -54 36 -76 47 -22 10 -47 24 -55 31 -8 7 -60 35 -115 64 -55 28 -104
55 -109 60 -6 6 -22 10 -37 10 -15 0 -32 7 -39 15 -7 8 -20 15 -30 15 -10 0
-23 7 -30 15 -7 8 -24 15 -37 15 -14 0 -37 6 -51 14 -67 35 -254 95 -319 103
-23 3 -47 11 -54 19 -6 8 -26 14 -44 14 -18 0 -52 7 -75 15 -23 8 -62 15 -85
15 -23 0 -58 6 -76 14 -19 7 -82 16 -140 20 -59 3 -119 10 -134 16 -35 13
-534 13 -557 -1z m577 -100 c112 -10 264 -32 345 -50 25 -6 65 -14 90 -18 25
-4 61 -12 80 -18 19 -6 62 -19 95 -28 33 -9 75 -23 93 -31 18 -8 40 -14 50
-14 9 0 30 -7 46 -15 15 -8 35 -15 43 -15 8 0 27 -6 41 -14 15 -8 67 -31 115
-51 76 -31 255 -120 350 -174 148 -83 350 -229 512 -370 163 -142 165 -144
165 -152 0 -9 -448 -459 -457 -459 -3 0 -37 32 -76 71 -61 62 -316 263 -357
282 -8 4 -28 16 -45 27 -16 11 -39 24 -50 30 -11 6 -33 19 -50 29 -41 26 -197
103 -265 131 -30 12 -68 28 -85 35 -38 16 -91 34 -130 45 -16 5 -43 13 -60 18
-80 27 -209 57 -360 83 -40 8 -191 14 -355 17 -230 3 -305 0 -390 -13 -185
-29 -381 -77 -505 -122 -22 -9 -58 -22 -80 -30 -38 -14 -66 -26 -137 -57 -18
-8 -40 -17 -48 -21 -8 -3 -42 -20 -75 -39 -33 -18 -81 -44 -106 -58 -157 -85
-341 -222 -478 -355 -35 -35 -71 -63 -79 -63 -16 0 -452 431 -452 448 0 11
198 190 275 248 28 21 55 43 60 50 6 6 30 24 55 41 25 16 76 50 113 76 38 26
70 47 72 47 2 0 21 12 42 26 21 14 47 30 58 35 11 5 34 18 50 29 17 11 37 23
45 26 8 3 71 33 140 67 132 63 158 75 230 102 103 39 174 63 240 82 30 8 78
21 105 29 28 8 73 18 100 23 28 5 63 14 78 20 16 6 45 11 65 11 21 0 53 5 72
11 33 10 122 20 355 39 110 9 291 5 460 -11z"/>
<path d="M4225 3133 c-16 -3 -34 -9 -39 -14 -6 -5 -32 -9 -59 -9 -26 0 -58 -5
-70 -12 -12 -7 -44 -15 -72 -19 -52 -7 -100 -22 -148 -45 -16 -8 -35 -14 -42
-14 -8 0 -31 -7 -52 -16 -21 -9 -51 -23 -68 -30 -59 -25 -181 -86 -210 -105
-16 -10 -41 -24 -55 -30 -14 -5 -67 -42 -117 -80 -51 -38 -95 -69 -99 -69 -6
0 -63 -52 -150 -139 -49 -48 -54 -57 -54 -97 l0 -45 248 -249 249 -250 51 0
c50 0 54 2 111 60 33 33 65 60 71 60 6 0 13 7 16 15 4 8 11 15 16 15 6 0 27
13 47 29 43 34 204 121 225 121 7 0 19 7 26 15 7 8 27 15 44 15 17 0 40 7 50
15 11 8 38 15 60 15 23 1 59 7 81 15 56 21 374 21 430 0 22 -8 58 -14 80 -15
22 0 49 -7 59 -15 11 -8 31 -15 44 -15 13 0 36 -6 50 -14 15 -8 59 -30 98 -48
98 -47 199 -116 289 -198 73 -66 80 -70 125 -70 l47 0 239 238 c146 145 245
252 256 275 17 37 17 40 -2 77 -11 21 -43 58 -71 82 -29 24 -68 57 -88 73 -67
57 -119 95 -129 95 -6 0 -15 6 -19 13 -8 13 -84 67 -113 80 -8 4 -28 16 -45
27 -16 11 -37 22 -45 26 -8 3 -22 10 -30 15 -8 5 -22 12 -30 15 -8 3 -22 10
-30 15 -8 5 -22 12 -30 15 -8 3 -46 19 -84 35 -38 16 -75 29 -83 29 -8 0 -27
6 -41 14 -49 24 -96 39 -153 45 -31 4 -63 12 -70 18 -8 6 -39 13 -69 16 -30 2
-73 9 -95 16 -38 10 -482 13 -550 4z m470 -94 c33 -6 89 -14 125 -18 86 -10
241 -49 308 -77 18 -8 39 -14 47 -14 7 0 26 -6 42 -14 15 -7 44 -20 63 -28 45
-19 179 -85 205 -101 132 -81 223 -144 295 -206 110 -95 130 -114 130 -121 0
-5 -102 -111 -226 -236 l-225 -227 -47 45 c-85 82 -300 228 -335 228 -7 0 -17
4 -22 9 -13 12 -98 45 -165 64 -187 53 -177 52 -390 52 -210 0 -239 -4 -395
-51 -83 -26 -200 -77 -290 -128 -54 -30 -166 -115 -214 -163 -29 -29 -56 -53
-60 -53 -3 0 -109 104 -235 230 -223 224 -229 231 -210 248 119 107 274 224
379 286 44 26 87 51 95 56 8 6 32 17 53 26 20 9 54 25 74 35 21 11 43 19 49
19 7 0 25 6 41 14 43 21 106 42 203 67 25 6 67 17 94 25 26 8 65 14 85 15 20
0 68 7 106 14 86 16 339 19 420 4z"/>
<path d="M4430 2105 c-14 -8 -44 -14 -66 -15 -24 0 -47 -6 -54 -15 -7 -8 -25
-15 -40 -15 -15 0 -33 -7 -40 -15 -7 -8 -19 -15 -27 -15 -22 0 -127 -84 -164
-132 -19 -24 -39 -47 -46 -51 -7 -4 -13 -16 -13 -26 0 -10 -7 -24 -15 -31 -8
-7 -15 -18 -15 -25 0 -8 -6 -26 -14 -42 -34 -69 -46 -133 -46 -240 0 -60 4
-113 9 -118 6 -6 14 -28 20 -50 20 -84 68 -170 138 -250 25 -29 120 -98 168
-123 97 -49 134 -57 275 -57 161 0 233 20 340 94 49 34 160 143 160 158 0 6 6
16 13 20 11 7 26 36 60 116 56 129 56 332 1 439 -8 14 -14 31 -14 38 0 7 -13
32 -30 57 -16 24 -30 47 -30 51 0 4 -8 15 -17 24 -10 9 -40 39 -67 66 -27 28
-59 53 -72 56 -13 4 -24 11 -24 16 0 6 -8 10 -19 10 -10 0 -24 7 -31 15 -7 8
-22 15 -34 15 -12 0 -31 7 -42 15 -10 8 -35 15 -54 15 -20 0 -44 6 -55 14 -26
18 -123 18 -155 1z m287 -141 c141 -66 253 -203 289 -354 47 -194 -35 -416
-195 -532 -111 -80 -179 -100 -323 -96 -111 4 -140 10 -226 52 -155 74 -282
282 -282 461 0 158 99 339 233 428 102 68 180 88 324 82 92 -4 110 -8 180 -41z"/>
</g>
</svg>
