<?xml version="1.0" standalone="no"?>
<!DOCTYPE svg PUBLIC "-//W3C//DTD SVG 20010904//EN"
 "http://www.w3.org/TR/2001/REC-SVG-20010904/DTD/svg10.dtd">
<svg version="1.0" xmlns="http://www.w3.org/2000/svg"
 width="30.000000pt" height="30.000000pt" viewBox="0 0 92.000000 87.000000"
 preserveAspectRatio="xMidYMid meet">
<metadata>
Created by potrace 1.10, written by Peter Selinger 2001-2011
</metadata>
<g transform="translate(0.000000,87.000000) scale(0.050000,-0.050000)"
fill="#11C1F3" stroke="none">
<path d="M760 1582 c-271 -59 -425 -275 -218 -305 179 -25 381 -193 300 -250
-31 -22 -51 -19 -125 17 -312 151 -513 33 -459 -269 47 -269 301 -494 302
-269 1 149 189 393 253 329 25 -24 23 -42 -14 -127 -128 -296 -70 -468 158
-468 336 0 650 281 351 314 -115 12 -206 64 -271 153 -73 101 -39 137 80 85
328 -143 483 -88 483 169 -1 338 -253 598 -309 318 -24 -119 -81 -215 -160
-266 -100 -66 -128 -17 -69 117 148 334 21 523 -302 452z m251 -623 c22 -36
-9 -116 -50 -129 -114 -36 -174 136 -61 174 33 12 90 -12 111 -45z"/>
</g>
</svg>
