<?xml version="1.0" standalone="no"?>
<!DOCTYPE svg PUBLIC "-//W3C//DTD SVG 20010904//EN"
 "http://www.w3.org/TR/2001/REC-SVG-20010904/DTD/svg10.dtd">
<svg version="1.0" xmlns="http://www.w3.org/2000/svg"
 width="100.000000pt" height="100.000000pt" viewBox="0 0 900.000000 900.000000"
 preserveAspectRatio="xMidYMid meet">
<metadata>
Created by potrace 1.10, written by Peter Selinger 2001-2011
</metadata>
<g transform="translate(0.000000,900.000000) scale(0.100000,-0.100000)"
fill="#000000" stroke="none">
<path d="M4366 8338 c-47 -26 -97 -75 -122 -120 -18 -30 -19 -69 -24 -508 -4
-366 -8 -475 -17 -475 -7 0 -151 137 -320 305 -170 168 -324 314 -343 325 -28
16 -54 20 -125 20 -81 0 -95 -3 -137 -28 -89 -53 -138 -139 -138 -240 0 -119
-10 -107 555 -673 418 -418 515 -520 520 -547 8 -45 2 -1404 -7 -1412 -4 -4
-38 10 -75 31 -37 22 -75 42 -83 47 -8 4 -28 16 -45 27 -16 11 -37 23 -45 27
-8 4 -46 25 -85 48 -38 22 -77 44 -85 48 -8 4 -28 16 -45 27 -16 11 -37 23
-45 27 -8 4 -58 32 -110 63 -52 31 -102 59 -110 63 -8 4 -28 16 -45 27 -16 11
-37 23 -45 27 -18 8 -159 89 -180 103 -8 6 -22 13 -30 17 -8 4 -47 26 -86 50
-39 24 -76 43 -81 43 -23 0 -72 60 -78 96 -4 22 -13 59 -20 84 -16 55 -38 134
-61 220 -36 139 -64 243 -89 335 -19 67 -35 129 -61 225 -35 135 -45 173 -89
335 -48 173 -82 230 -167 276 -60 32 -194 33 -253 2 -111 -59 -170 -182 -145
-306 6 -34 18 -82 25 -107 17 -58 39 -138 61 -220 29 -111 45 -173 61 -230 8
-30 22 -80 30 -110 8 -30 20 -74 28 -98 19 -64 -5 -64 -105 -2 -30 19 -215
126 -230 133 -8 4 -28 16 -45 27 -16 11 -37 23 -45 27 -14 6 -199 113 -230
133 -8 5 -45 25 -82 45 -61 32 -74 35 -148 35 -59 0 -91 -5 -113 -17 -53 -29
-117 -95 -138 -142 -26 -59 -26 -163 0 -222 23 -51 89 -118 146 -149 22 -11
47 -25 55 -30 29 -18 165 -96 180 -103 8 -4 29 -16 45 -27 17 -11 37 -23 45
-27 8 -4 58 -32 110 -63 52 -31 102 -59 110 -63 8 -4 29 -16 45 -27 17 -10 49
-29 72 -41 24 -13 43 -27 43 -33 0 -6 -30 -19 -67 -29 -38 -10 -93 -25 -123
-34 -30 -8 -79 -21 -107 -29 -29 -8 -79 -21 -110 -30 -32 -8 -80 -21 -108 -29
-27 -7 -79 -21 -115 -30 -234 -60 -275 -81 -336 -176 -26 -40 -29 -52 -29
-134 0 -98 11 -128 70 -193 50 -56 113 -82 198 -82 40 0 93 6 118 14 47 15
112 33 334 91 28 7 75 20 105 28 30 9 84 23 120 33 124 32 223 59 333 88 122
34 164 45 227 61 36 10 85 24 109 31 69 22 94 17 173 -29 40 -24 80 -46 88
-50 8 -4 29 -16 45 -27 17 -11 37 -23 45 -27 17 -8 158 -89 180 -103 8 -6 24
-15 35 -20 11 -6 34 -19 50 -30 17 -11 37 -23 45 -27 8 -4 47 -25 85 -48 39
-22 77 -44 85 -48 8 -4 29 -16 45 -27 17 -11 37 -23 45 -27 8 -4 51 -28 95
-54 75 -44 106 -62 248 -141 31 -18 57 -40 57 -48 0 -8 -26 -30 -57 -48 -32
-17 -83 -46 -113 -63 -30 -17 -115 -66 -188 -110 -72 -43 -134 -79 -136 -79
-2 0 -39 -20 -80 -45 -42 -25 -78 -45 -81 -45 -2 0 -21 -12 -42 -26 -21 -14
-47 -30 -58 -35 -11 -5 -27 -13 -35 -19 -22 -14 -162 -95 -180 -103 -8 -4 -28
-16 -45 -27 -16 -11 -37 -23 -45 -27 -8 -4 -48 -26 -88 -50 -79 -47 -108 -51
-181 -29 -43 14 -70 21 -216 61 -30 8 -79 21 -108 29 -28 8 -81 22 -117 32
-123 32 -241 63 -337 90 -32 8 -80 21 -108 29 -27 7 -79 21 -115 30 -82 22
-141 38 -206 59 -76 24 -194 21 -247 -5 -55 -27 -103 -74 -130 -124 -17 -32
-21 -58 -21 -130 -1 -82 2 -94 28 -134 62 -97 93 -113 336 -176 36 -10 85 -23
110 -30 25 -7 74 -20 110 -29 88 -23 154 -41 220 -59 30 -9 85 -24 123 -34 37
-10 67 -23 67 -29 0 -7 -19 -22 -42 -34 -24 -12 -56 -30 -73 -41 -16 -10 -39
-23 -50 -29 -11 -5 -27 -14 -35 -20 -22 -14 -163 -95 -180 -103 -8 -4 -28 -16
-45 -27 -16 -11 -37 -23 -45 -27 -8 -4 -46 -26 -85 -48 -38 -23 -77 -44 -85
-48 -8 -4 -28 -16 -45 -27 -16 -11 -37 -23 -45 -26 -32 -14 -102 -91 -121
-133 -26 -59 -26 -163 0 -222 21 -47 85 -113 138 -142 22 -12 54 -17 113 -17
74 0 87 3 148 35 37 20 74 40 82 45 30 19 165 96 180 103 8 4 29 16 45 27 17
11 39 24 50 30 11 6 36 20 55 31 19 12 55 32 80 46 25 13 59 33 75 44 17 10
37 22 45 26 8 4 36 20 63 36 64 39 79 33 62 -25 -8 -24 -21 -70 -30 -103 -35
-127 -44 -162 -61 -225 -9 -36 -23 -90 -31 -120 -8 -30 -21 -77 -28 -105 -7
-27 -20 -75 -29 -105 -34 -121 -39 -165 -26 -221 16 -67 23 -81 68 -131 58
-64 103 -82 202 -82 101 0 149 21 208 91 36 42 53 83 87 208 16 61 38 141 58
215 9 30 23 84 32 120 23 92 62 235 90 335 26 96 42 155 60 225 9 36 23 90 32
120 8 30 21 78 28 105 38 142 32 132 119 183 45 27 88 51 96 55 8 4 29 16 45
27 17 11 37 23 45 27 8 4 47 25 85 48 39 22 77 44 85 48 8 4 29 16 45 27 17
11 37 23 45 27 17 8 158 89 180 103 8 6 24 14 35 19 11 5 37 21 58 35 21 14
40 26 44 26 3 0 38 19 77 43 39 24 78 46 86 50 8 5 24 13 35 20 27 16 121 70
169 97 21 11 41 18 45 15 8 -9 14 -1347 6 -1403 -6 -40 -32 -68 -520 -556
-564 -565 -555 -554 -555 -673 0 -104 53 -195 143 -244 57 -32 203 -34 257 -4
19 11 173 157 343 325 169 168 313 305 320 305 9 0 13 -109 17 -475 6 -526 2
-502 74 -573 58 -58 106 -77 196 -77 62 0 88 5 121 22 53 27 100 74 127 127
22 41 22 49 22 506 0 330 3 466 11 471 7 4 140 -121 323 -303 171 -170 327
-317 346 -328 54 -31 199 -28 258 4 86 47 142 143 142 244 0 117 9 106 -554
670 -429 428 -516 520 -521 548 -8 44 -2 1405 6 1414 6 5 83 -33 159 -80 19
-12 42 -25 50 -28 8 -4 29 -16 45 -27 17 -11 37 -23 45 -27 18 -8 208 -119
230 -133 8 -6 22 -13 30 -17 8 -4 47 -25 85 -48 39 -22 77 -44 85 -48 8 -4 29
-16 45 -27 17 -11 37 -23 45 -27 8 -4 47 -26 85 -48 39 -23 77 -44 85 -48 8
-4 29 -16 45 -27 17 -11 37 -23 45 -27 9 -5 50 -28 91 -52 76 -43 109 -83 109
-129 0 -9 6 -37 14 -62 8 -25 22 -74 32 -110 28 -110 60 -229 88 -330 8 -30
22 -84 32 -120 9 -36 22 -85 29 -110 7 -25 20 -74 30 -110 9 -36 23 -90 32
-120 8 -30 21 -77 28 -105 61 -232 74 -269 116 -318 60 -70 108 -91 209 -91
96 0 142 18 196 76 45 49 60 77 74 140 13 57 9 91 -25 213 -24 87 -66 243 -91
335 -28 110 -46 173 -60 219 -8 25 -14 53 -14 63 0 11 -7 33 -16 50 -23 43 -5
60 39 34 18 -10 48 -27 67 -38 19 -11 49 -28 65 -39 17 -10 37 -22 45 -26 8
-4 47 -25 85 -48 39 -22 77 -44 85 -48 8 -4 29 -16 45 -27 17 -11 37 -23 45
-27 15 -7 150 -84 180 -103 8 -5 45 -25 82 -45 61 -32 74 -35 148 -35 91 0
119 11 183 70 60 55 87 116 87 198 0 47 -6 84 -19 113 -19 42 -89 119 -121
133 -8 3 -28 15 -45 26 -16 11 -37 23 -45 27 -8 4 -46 25 -85 48 -38 22 -77
44 -85 48 -8 4 -28 16 -45 27 -16 11 -37 23 -45 27 -18 8 -158 89 -180 103 -8
6 -22 13 -30 17 -8 4 -33 18 -55 32 -22 14 -57 34 -77 44 -21 11 -38 24 -38
31 0 6 30 19 68 29 37 10 90 24 117 32 114 31 253 69 335 91 371 97 380 101
446 205 25 40 28 53 28 134 0 75 -4 97 -23 132 -26 49 -75 94 -131 123 -48 24
-173 28 -235 6 -22 -8 -69 -22 -105 -31 -36 -10 -90 -24 -120 -32 -30 -8 -80
-22 -110 -30 -30 -8 -80 -21 -110 -29 -30 -9 -77 -21 -105 -29 -27 -7 -79 -21
-115 -31 -99 -25 -169 -44 -227 -60 -53 -14 -115 -31 -215 -58 -29 -8 -78 -21
-109 -30 -82 -24 -104 -20 -183 27 -39 24 -78 46 -86 50 -8 5 -24 13 -35 20
-11 7 -63 37 -115 67 -52 30 -104 60 -115 67 -11 7 -27 15 -35 19 -8 4 -33 19
-55 33 -42 27 -48 30 -130 75 -27 15 -63 36 -80 47 -16 10 -39 23 -50 29 -11
6 -36 20 -55 31 -19 12 -55 32 -80 46 -25 13 -58 33 -75 44 -16 10 -37 22 -45
26 -8 4 -46 25 -85 48 -38 22 -78 44 -87 48 -25 9 -22 46 5 57 12 6 49 26 82
45 33 19 67 37 75 41 8 4 33 19 55 33 22 14 60 36 84 49 24 13 58 33 75 43 17
10 38 22 46 26 8 3 33 18 55 32 22 14 60 36 84 49 24 13 58 33 75 43 17 10 40
23 51 29 11 6 34 19 50 30 17 11 37 23 45 27 8 4 47 25 85 48 39 22 77 44 85
48 8 4 29 16 45 27 17 11 37 23 45 27 8 4 48 26 88 50 78 46 104 51 173 29 42
-13 112 -32 229 -63 63 -17 137 -36 213 -57 58 -16 128 -35 227 -60 69 -19
127 -34 225 -61 75 -21 141 -38 225 -60 36 -10 85 -24 109 -31 25 -8 78 -14
118 -14 111 0 190 48 248 150 16 28 20 53 19 125 0 81 -3 94 -28 134 -52 81
-101 113 -226 146 -36 10 -90 24 -120 32 -82 22 -153 41 -217 59 -32 8 -80 21
-108 29 -27 7 -79 21 -115 30 -133 35 -180 50 -180 61 0 6 19 20 43 33 23 12
56 31 72 41 17 11 37 23 45 27 8 4 58 32 110 63 52 31 102 59 110 63 8 4 29
16 45 27 17 11 37 23 45 27 8 4 47 25 85 48 39 22 77 44 85 48 8 4 29 16 45
27 17 11 37 23 45 26 32 14 102 91 121 133 13 29 19 66 19 113 0 82 -27 143
-87 198 -64 59 -92 70 -183 70 -74 0 -87 -3 -148 -35 -37 -20 -74 -40 -82 -45
-29 -19 -215 -126 -230 -133 -8 -4 -28 -16 -45 -27 -16 -11 -37 -23 -45 -27
-8 -4 -46 -26 -85 -48 -38 -23 -77 -44 -85 -48 -8 -4 -28 -16 -45 -26 -115
-74 -142 -76 -121 -9 8 24 21 68 29 98 8 30 22 80 30 110 9 30 23 84 32 120 9
36 23 89 31 117 8 29 21 78 29 108 8 30 22 79 30 108 33 120 38 162 25 218
-21 86 -68 148 -150 194 -53 30 -189 27 -248 -4 -85 -46 -122 -106 -167 -276
-8 -30 -22 -80 -30 -110 -8 -30 -21 -79 -29 -108 -8 -28 -22 -81 -32 -117 -32
-123 -63 -241 -90 -337 -37 -139 -43 -161 -60 -223 -9 -36 -23 -90 -31 -120
-8 -30 -21 -75 -29 -100 -8 -25 -14 -53 -14 -62 0 -46 -33 -86 -109 -129 -41
-24 -82 -47 -91 -52 -8 -4 -28 -16 -45 -27 -16 -11 -37 -23 -45 -27 -8 -4 -46
-26 -85 -48 -38 -23 -77 -44 -85 -48 -8 -4 -28 -16 -45 -27 -16 -11 -37 -23
-45 -27 -8 -4 -58 -32 -110 -63 -52 -31 -102 -59 -110 -63 -8 -4 -28 -16 -45
-27 -16 -11 -37 -23 -45 -27 -8 -4 -46 -25 -85 -48 -38 -22 -77 -44 -85 -48
-8 -4 -28 -16 -45 -27 -16 -11 -37 -23 -45 -27 -8 -4 -46 -25 -83 -46 -37 -22
-71 -36 -75 -32 -9 8 -15 1344 -7 1403 6 40 32 68 520 556 564 565 555 554
555 672 0 100 -51 189 -138 241 -42 25 -56 28 -137 28 -71 0 -97 -4 -125 -20
-19 -11 -173 -157 -343 -325 -169 -168 -313 -305 -320 -305 -9 0 -13 105 -14
465 -3 450 -4 466 -24 508 -26 54 -73 102 -128 130 -58 31 -188 30 -245 0z"/>
</g>
</svg>
